<?xml version="1.0" encoding="utf-8" standalone="no"?>
<!DOCTYPE svg PUBLIC "-//W3C//DTD SVG 1.1//EN"
  "http://www.w3.org/Graphics/SVG/1.1/DTD/svg11.dtd">
<svg xmlns:xlink="http://www.w3.org/1999/xlink" width="584.39952pt" height="296.39952pt" viewBox="0 0 584.39952 296.39952" xmlns="http://www.w3.org/2000/svg" version="1.1">
 <metadata>
  <rdf:RDF xmlns:dc="http://purl.org/dc/elements/1.1/" xmlns:cc="http://creativecommons.org/ns#" xmlns:rdf="http://www.w3.org/1999/02/22-rdf-syntax-ns#">
   <cc:Work>
    <dc:type rdf:resource="http://purl.org/dc/dcmitype/StillImage"/>
    <dc:date>2022-06-11T22:30:23.502171</dc:date>
    <dc:format>image/svg+xml</dc:format>
    <dc:creator>
     <cc:Agent>
      <dc:title>Matplotlib v3.5.2, https://matplotlib.org/</dc:title>
     </cc:Agent>
    </dc:creator>
   </cc:Work>
  </rdf:RDF>
 </metadata>
 <defs>
  <style type="text/css">*{stroke-linejoin: round; stroke-linecap: butt}</style>
 </defs>
 <g id="figure_1">
  <g id="patch_1">
   <path d="M 0 296.39952 
L 584.39952 296.39952 
L 584.39952 0 
L 0 0 
z
" style="fill: #ffffff"/>
  </g>
  <g id="axes_1">
   <g id="patch_2">
    <path d="M 38.482813 111.84303 
L 289.19952 111.84303 
L 289.19952 7.2 
L 38.482813 7.2 
z
" style="fill: #ffffff"/>
   </g>
   <g id="matplotlib.axis_1">
    <g id="xtick_1">
     <g id="line2d_1">
      <defs>
       <path id="ma8ef2d7d1c" d="M 0 0 
L 0 3.5 
" style="stroke: #000000; stroke-width: 0.8"/>
      </defs>
      <g>
       <use xlink:href="#ma8ef2d7d1c" x="54.906404" y="111.84303" style="stroke: #000000; stroke-width: 0.8"/>
      </g>
     </g>
     <g id="text_1">
      <!-- −3 -->
      <g transform="translate(47.535311 126.441467)scale(0.1 -0.1)">
       <defs>
        <path id="DejaVuSans-2212" d="M 678 2272 
L 4684 2272 
L 4684 1741 
L 678 1741 
L 678 2272 
z
" transform="scale(0.015625)"/>
        <path id="DejaVuSans-33" d="M 2597 2516 
Q 3050 2419 3304 2112 
Q 3559 1806 3559 1356 
Q 3559 666 3084 287 
Q 2609 -91 1734 -91 
Q 1441 -91 1130 -33 
Q 819 25 488 141 
L 488 750 
Q 750 597 1062 519 
Q 1375 441 1716 441 
Q 2309 441 2620 675 
Q 2931 909 2931 1356 
Q 2931 1769 2642 2001 
Q 2353 2234 1838 2234 
L 1294 2234 
L 1294 2753 
L 1863 2753 
Q 2328 2753 2575 2939 
Q 2822 3125 2822 3475 
Q 2822 3834 2567 4026 
Q 2313 4219 1838 4219 
Q 1578 4219 1281 4162 
Q 984 4106 628 3988 
L 628 4550 
Q 988 4650 1302 4700 
Q 1616 4750 1894 4750 
Q 2613 4750 3031 4423 
Q 3450 4097 3450 3541 
Q 3450 3153 3228 2886 
Q 3006 2619 2597 2516 
z
" transform="scale(0.015625)"/>
       </defs>
       <use xlink:href="#DejaVuSans-2212"/>
       <use xlink:href="#DejaVuSans-33" x="83.789062"/>
      </g>
     </g>
    </g>
    <g id="xtick_2">
     <g id="line2d_2">
      <g>
       <use xlink:href="#ma8ef2d7d1c" x="91.217992" y="111.84303" style="stroke: #000000; stroke-width: 0.8"/>
      </g>
     </g>
     <g id="text_2">
      <!-- −2 -->
      <g transform="translate(83.846898 126.441467)scale(0.1 -0.1)">
       <defs>
        <path id="DejaVuSans-32" d="M 1228 531 
L 3431 531 
L 3431 0 
L 469 0 
L 469 531 
Q 828 903 1448 1529 
Q 2069 2156 2228 2338 
Q 2531 2678 2651 2914 
Q 2772 3150 2772 3378 
Q 2772 3750 2511 3984 
Q 2250 4219 1831 4219 
Q 1534 4219 1204 4116 
Q 875 4013 500 3803 
L 500 4441 
Q 881 4594 1212 4672 
Q 1544 4750 1819 4750 
Q 2544 4750 2975 4387 
Q 3406 4025 3406 3419 
Q 3406 3131 3298 2873 
Q 3191 2616 2906 2266 
Q 2828 2175 2409 1742 
Q 1991 1309 1228 531 
z
" transform="scale(0.015625)"/>
       </defs>
       <use xlink:href="#DejaVuSans-2212"/>
       <use xlink:href="#DejaVuSans-32" x="83.789062"/>
      </g>
     </g>
    </g>
    <g id="xtick_3">
     <g id="line2d_3">
      <g>
       <use xlink:href="#ma8ef2d7d1c" x="127.529579" y="111.84303" style="stroke: #000000; stroke-width: 0.8"/>
      </g>
     </g>
     <g id="text_3">
      <!-- −1 -->
      <g transform="translate(120.158485 126.441467)scale(0.1 -0.1)">
       <defs>
        <path id="DejaVuSans-31" d="M 794 531 
L 1825 531 
L 1825 4091 
L 703 3866 
L 703 4441 
L 1819 4666 
L 2450 4666 
L 2450 531 
L 3481 531 
L 3481 0 
L 794 0 
L 794 531 
z
" transform="scale(0.015625)"/>
       </defs>
       <use xlink:href="#DejaVuSans-2212"/>
       <use xlink:href="#DejaVuSans-31" x="83.789062"/>
      </g>
     </g>
    </g>
    <g id="xtick_4">
     <g id="line2d_4">
      <g>
       <use xlink:href="#ma8ef2d7d1c" x="163.841166" y="111.84303" style="stroke: #000000; stroke-width: 0.8"/>
      </g>
     </g>
     <g id="text_4">
      <!-- 0 -->
      <g transform="translate(160.659916 126.441467)scale(0.1 -0.1)">
       <defs>
        <path id="DejaVuSans-30" d="M 2034 4250 
Q 1547 4250 1301 3770 
Q 1056 3291 1056 2328 
Q 1056 1369 1301 889 
Q 1547 409 2034 409 
Q 2525 409 2770 889 
Q 3016 1369 3016 2328 
Q 3016 3291 2770 3770 
Q 2525 4250 2034 4250 
z
M 2034 4750 
Q 2819 4750 3233 4129 
Q 3647 3509 3647 2328 
Q 3647 1150 3233 529 
Q 2819 -91 2034 -91 
Q 1250 -91 836 529 
Q 422 1150 422 2328 
Q 422 3509 836 4129 
Q 1250 4750 2034 4750 
z
" transform="scale(0.015625)"/>
       </defs>
       <use xlink:href="#DejaVuSans-30"/>
      </g>
     </g>
    </g>
    <g id="xtick_5">
     <g id="line2d_5">
      <g>
       <use xlink:href="#ma8ef2d7d1c" x="200.152754" y="111.84303" style="stroke: #000000; stroke-width: 0.8"/>
      </g>
     </g>
     <g id="text_5">
      <!-- 1 -->
      <g transform="translate(196.971504 126.441467)scale(0.1 -0.1)">
       <use xlink:href="#DejaVuSans-31"/>
      </g>
     </g>
    </g>
    <g id="xtick_6">
     <g id="line2d_6">
      <g>
       <use xlink:href="#ma8ef2d7d1c" x="236.464341" y="111.84303" style="stroke: #000000; stroke-width: 0.8"/>
      </g>
     </g>
     <g id="text_6">
      <!-- 2 -->
      <g transform="translate(233.283091 126.441467)scale(0.1 -0.1)">
       <use xlink:href="#DejaVuSans-32"/>
      </g>
     </g>
    </g>
    <g id="xtick_7">
     <g id="line2d_7">
      <g>
       <use xlink:href="#ma8ef2d7d1c" x="272.775928" y="111.84303" style="stroke: #000000; stroke-width: 0.8"/>
      </g>
     </g>
     <g id="text_7">
      <!-- 3 -->
      <g transform="translate(269.594678 126.441467)scale(0.1 -0.1)">
       <use xlink:href="#DejaVuSans-33"/>
      </g>
     </g>
    </g>
    <g id="text_8">
     <!-- $x$ -->
     <g transform="translate(160.841166 140.119592)scale(0.1 -0.1)">
      <defs>
       <path id="DejaVuSans-Oblique-78" d="M 3841 3500 
L 2234 1784 
L 3219 0 
L 2559 0 
L 1819 1388 
L 531 0 
L -166 0 
L 1556 1844 
L 641 3500 
L 1300 3500 
L 1972 2234 
L 3144 3500 
L 3841 3500 
z
" transform="scale(0.015625)"/>
      </defs>
      <use xlink:href="#DejaVuSans-Oblique-78" transform="translate(0 0.3125)"/>
     </g>
    </g>
   </g>
   <g id="matplotlib.axis_2">
    <g id="ytick_1">
     <g id="line2d_8">
      <defs>
       <path id="mcb1afa8b3f" d="M 0 0 
L -3.5 0 
" style="stroke: #000000; stroke-width: 0.8"/>
      </defs>
      <g>
       <use xlink:href="#mcb1afa8b3f" x="38.482813" y="97.13295" style="stroke: #000000; stroke-width: 0.8"/>
      </g>
     </g>
     <g id="text_9">
      <!-- −0.5 -->
      <g transform="translate(7.2 100.932169)scale(0.1 -0.1)">
       <defs>
        <path id="DejaVuSans-2e" d="M 684 794 
L 1344 794 
L 1344 0 
L 684 0 
L 684 794 
z
" transform="scale(0.015625)"/>
        <path id="DejaVuSans-35" d="M 691 4666 
L 3169 4666 
L 3169 4134 
L 1269 4134 
L 1269 2991 
Q 1406 3038 1543 3061 
Q 1681 3084 1819 3084 
Q 2600 3084 3056 2656 
Q 3513 2228 3513 1497 
Q 3513 744 3044 326 
Q 2575 -91 1722 -91 
Q 1428 -91 1123 -41 
Q 819 9 494 109 
L 494 744 
Q 775 591 1075 516 
Q 1375 441 1709 441 
Q 2250 441 2565 725 
Q 2881 1009 2881 1497 
Q 2881 1984 2565 2268 
Q 2250 2553 1709 2553 
Q 1456 2553 1204 2497 
Q 953 2441 691 2322 
L 691 4666 
z
" transform="scale(0.015625)"/>
       </defs>
       <use xlink:href="#DejaVuSans-2212"/>
       <use xlink:href="#DejaVuSans-30" x="83.789062"/>
       <use xlink:href="#DejaVuSans-2e" x="147.412109"/>
       <use xlink:href="#DejaVuSans-35" x="179.199219"/>
      </g>
     </g>
    </g>
    <g id="ytick_2">
     <g id="line2d_9">
      <g>
       <use xlink:href="#mcb1afa8b3f" x="38.482813" y="59.521515" style="stroke: #000000; stroke-width: 0.8"/>
      </g>
     </g>
     <g id="text_10">
      <!-- 0.0 -->
      <g transform="translate(15.579688 63.320734)scale(0.1 -0.1)">
       <use xlink:href="#DejaVuSans-30"/>
       <use xlink:href="#DejaVuSans-2e" x="63.623047"/>
       <use xlink:href="#DejaVuSans-30" x="95.410156"/>
      </g>
     </g>
    </g>
    <g id="ytick_3">
     <g id="line2d_10">
      <g>
       <use xlink:href="#mcb1afa8b3f" x="38.482813" y="21.91008" style="stroke: #000000; stroke-width: 0.8"/>
      </g>
     </g>
     <g id="text_11">
      <!-- 0.5 -->
      <g transform="translate(15.579688 25.709299)scale(0.1 -0.1)">
       <use xlink:href="#DejaVuSans-30"/>
       <use xlink:href="#DejaVuSans-2e" x="63.623047"/>
       <use xlink:href="#DejaVuSans-35" x="95.410156"/>
      </g>
     </g>
    </g>
   </g>
   <g id="line2d_11">
    <path d="M 49.879026 59.502271 
L 57.501912 58.306571 
L 62.075643 57.801714 
L 65.887086 57.586227 
L 69.698529 57.600824 
L 73.509972 57.872026 
L 77.321415 58.410824 
L 81.132857 59.211634 
L 84.9443 60.252087 
L 89.518032 61.76173 
L 95.61634 64.058175 
L 104.001514 67.243953 
L 108.575246 68.721657 
L 112.386688 69.683283 
L 115.435843 70.223508 
L 118.484997 70.525214 
L 121.534151 70.562208 
L 124.583305 70.315031 
L 127.63246 69.771801 
L 130.681614 68.928847 
L 133.730768 67.791107 
L 136.779922 66.372295 
L 139.829077 64.694797 
L 142.878231 62.789324 
L 146.689674 60.146111 
L 152.025694 56.122712 
L 161.173156 49.138363 
L 164.984599 46.51275 
L 168.033753 44.649396 
L 171.082908 43.056157 
L 173.369773 42.068367 
L 175.656639 41.278739 
L 177.943505 40.703205 
L 180.23037 40.35497 
L 182.517236 40.244274 
L 184.804102 40.378178 
L 187.090967 40.760415 
L 189.377833 41.391271 
L 191.664699 42.267525 
L 193.951564 43.382445 
L 196.23843 44.725824 
L 198.525296 46.284079 
L 201.57445 48.666505 
L 204.623604 51.352561 
L 208.435047 55.050105 
L 213.771067 60.631435 
L 222.156241 69.490226 
L 225.967684 73.190265 
L 229.016838 75.866389 
L 232.065992 78.218264 
L 234.352858 79.733562 
L 236.639724 81.011261 
L 238.926589 82.032566 
L 241.213455 82.781991 
L 243.500321 83.247603 
L 245.787186 83.421211 
L 248.074052 83.2985 
L 250.360918 82.879117 
L 252.647784 82.166696 
L 254.934649 81.168826 
L 257.221515 79.896966 
L 259.508381 78.366299 
L 261.795246 76.595539 
L 264.8444 73.899503 
L 267.893555 70.876332 
L 271.704998 66.741898 
L 277.041017 60.556073 
L 277.803306 59.656225 
L 277.803306 59.656225 
" clip-path="url(#p218c558293)" style="fill: none; stroke: #bdc2ff; stroke-linecap: square"/>
   </g>
   <g id="line2d_12">
    <path d="M 49.879026 59.790932 
L 53.690469 68.6054 
L 55.977335 73.457646 
L 58.264201 77.732718 
L 59.788778 80.172042 
L 61.313355 82.227644 
L 62.837932 83.859454 
L 64.362509 85.034573 
L 65.887086 85.727835 
L 66.649375 85.888134 
L 67.411663 85.922258 
L 68.173952 85.829415 
L 68.93624 85.609352 
L 69.698529 85.262365 
L 71.223106 84.191516 
L 72.747683 82.630054 
L 74.27226 80.599644 
L 75.796838 78.130105 
L 77.321415 75.258955 
L 79.60828 70.298618 
L 81.895146 64.713433 
L 85.706589 54.576087 
L 90.28032 42.340913 
L 92.567186 36.738276 
L 94.854052 31.775676 
L 96.378629 28.922426 
L 97.903206 26.495462 
L 99.427783 24.541036 
L 100.95236 23.098267 
L 101.714649 22.578861 
L 102.476937 22.19847 
L 103.239226 21.959698 
L 104.001514 21.864597 
L 104.763803 21.91466 
L 105.526091 22.110811 
L 106.28838 22.453401 
L 107.050669 22.942202 
L 108.575246 24.354641 
L 110.099823 26.334783 
L 111.6244 28.860213 
L 113.148977 31.89974 
L 114.673554 35.413826 
L 116.96042 41.469295 
L 119.247285 48.295656 
L 122.29644 58.216136 
L 129.157037 81.090927 
L 131.443902 87.975384 
L 133.730768 94.083562 
L 135.255345 97.6181 
L 136.779922 100.656797 
L 138.304499 103.15116 
L 139.829077 105.060564 
L 140.591365 105.785526 
L 141.353654 106.352904 
L 142.115942 106.760101 
L 142.878231 107.005112 
L 143.640519 107.086529 
L 144.402808 107.003549 
L 145.165097 106.755979 
L 145.927385 106.344236 
L 146.689674 105.769349 
L 147.451962 105.032953 
L 148.976539 103.085173 
L 150.501116 100.525861 
L 152.025694 97.389113 
L 153.550271 93.717669 
L 155.074848 89.562277 
L 157.361713 82.550458 
L 159.648579 74.803532 
L 163.460022 60.935864 
L 168.033753 44.239498 
L 170.320619 36.492572 
L 172.607485 29.480753 
L 174.132062 25.325361 
L 175.656639 21.653917 
L 177.181216 18.517169 
L 178.705793 15.957857 
L 180.23037 14.010077 
L 180.992659 13.273681 
L 181.754947 12.698794 
L 182.517236 12.287051 
L 183.279525 12.039481 
L 184.041813 11.956501 
L 184.804102 12.037918 
L 185.56639 12.282929 
L 186.328679 12.690126 
L 187.090967 13.257504 
L 187.853256 13.982466 
L 189.377833 15.89187 
L 190.90241 18.386233 
L 192.426987 21.42493 
L 193.951564 24.959468 
L 196.23843 31.067646 
L 198.525296 37.952103 
L 201.57445 47.927384 
L 208.435047 70.747374 
L 210.721913 77.573735 
L 213.008778 83.629204 
L 214.533356 87.14329 
L 216.057933 90.182817 
L 217.58251 92.708247 
L 219.107087 94.688389 
L 220.631664 96.100828 
L 221.393953 96.589629 
L 222.156241 96.932219 
L 222.91853 97.12837 
L 223.680818 97.178433 
L 224.443107 97.083332 
L 225.205395 96.84456 
L 225.967684 96.464169 
L 226.729972 95.944763 
L 228.25455 94.501994 
L 229.779127 92.547568 
L 231.303704 90.120604 
L 232.828281 87.267354 
L 235.115147 82.304754 
L 237.402012 76.702117 
L 241.213455 66.544102 
L 245.787186 54.329597 
L 248.074052 48.744412 
L 250.360918 43.784075 
L 251.885495 40.912925 
L 253.410072 38.443386 
L 254.934649 36.412976 
L 256.459226 34.851514 
L 257.983803 33.780665 
L 258.746092 33.433678 
L 259.508381 33.213615 
L 260.270669 33.120772 
L 261.032958 33.154896 
L 261.795246 33.315195 
L 262.557535 33.600336 
L 264.082112 34.53717 
L 265.606689 35.944276 
L 267.131266 37.792557 
L 268.655843 40.045451 
L 270.18042 42.659557 
L 272.467286 47.148264 
L 274.754152 52.148884 
L 277.803306 59.252098 
L 277.803306 59.252098 
" clip-path="url(#p218c558293)" style="fill: none; stroke: #5765ff; stroke-linecap: square"/>
   </g>
   <g id="line2d_13">
    <path d="M 49.879026 59.520545 
L 51.403604 59.322799 
L 52.928181 58.795222 
L 54.452758 57.9764 
L 55.977335 56.926321 
L 59.026489 54.45257 
L 61.313355 52.63134 
L 62.837932 51.605012 
L 64.362509 50.821624 
L 65.887086 50.341905 
L 67.411663 50.204715 
L 68.93624 50.42385 
L 70.460818 50.986564 
L 71.985395 51.853912 
L 73.509972 52.962931 
L 76.559126 55.558814 
L 78.845992 57.4323 
L 80.370569 58.447434 
L 81.895146 59.162975 
L 83.419723 59.500606 
L 84.182012 59.509291 
L 84.9443 59.404659 
L 85.706589 59.184023 
L 87.231166 58.393451 
L 88.755743 57.154271 
L 90.28032 55.513534 
L 91.804897 53.546451 
L 94.091763 50.206226 
L 97.140917 45.669785 
L 98.665494 43.659118 
L 100.190071 41.984002 
L 101.714649 40.74735 
L 102.476937 40.319032 
L 103.239226 40.027415 
L 104.001514 39.877495 
L 104.763803 39.872116 
L 105.526091 40.011892 
L 106.28838 40.295172 
L 107.050669 40.718033 
L 108.575246 41.955692 
L 110.099823 43.650198 
L 111.6244 45.696239 
L 117.722708 54.586289 
L 119.247285 56.226352 
L 120.771863 57.359494 
L 121.534151 57.704316 
L 122.29644 57.888513 
L 123.058728 57.905359 
L 123.821017 57.750581 
L 124.583305 57.422453 
L 125.345594 56.921847 
L 126.107883 56.252251 
L 127.63246 54.432911 
L 129.157037 52.042661 
L 130.681614 49.195904 
L 132.96848 44.391972 
L 136.017634 37.894115 
L 137.542211 35.008503 
L 139.066788 32.587959 
L 140.591365 30.772174 
L 141.353654 30.126008 
L 142.115942 29.668247 
L 142.878231 29.406065 
L 143.640519 29.34387 
L 144.402808 29.483217 
L 145.165097 29.822764 
L 145.927385 30.358274 
L 146.689674 31.08266 
L 148.214251 33.055991 
L 149.738828 35.633254 
L 151.263405 38.668889 
L 157.361713 51.716582 
L 158.886291 54.242475 
L 160.410868 56.134278 
L 161.173156 56.803742 
L 161.935445 57.273332 
L 162.697733 57.534828 
L 163.460022 57.582949 
L 164.222311 57.415429 
L 164.984599 57.033061 
L 165.746888 56.439693 
L 166.509176 55.642176 
L 168.033753 53.476545 
L 169.55833 50.646562 
L 171.082908 47.300621 
L 174.132062 39.792718 
L 176.418927 34.244129 
L 177.943505 30.961409 
L 179.468082 28.221505 
L 180.992659 26.171753 
L 181.754947 25.441537 
L 182.517236 24.921578 
L 183.279525 24.618664 
L 184.041813 24.536622 
L 184.804102 24.67627 
L 185.56639 25.035423 
L 186.328679 25.608938 
L 187.090967 26.388805 
L 187.853256 27.364271 
L 189.377833 29.846342 
L 190.90241 32.921604 
L 193.189276 38.284006 
L 197.763007 49.380624 
L 199.287584 52.515121 
L 200.812161 55.109187 
L 202.336739 57.054035 
L 203.099027 57.759621 
L 203.861316 58.280055 
L 204.623604 58.613236 
L 205.385893 58.75974 
L 206.148181 58.722772 
L 206.91047 58.508077 
L 207.672758 58.123823 
L 208.435047 57.580437 
L 209.959624 56.068138 
L 211.484201 54.091986 
L 213.771067 50.572852 
L 217.58251 44.521564 
L 219.107087 42.463997 
L 220.631664 40.794209 
L 222.156241 39.594916 
L 222.91853 39.188568 
L 223.680818 38.915734 
L 224.443107 38.77715 
L 225.205395 38.77138 
L 225.967684 38.894884 
L 227.492261 39.505657 
L 229.016838 40.543563 
L 230.541415 41.918305 
L 232.828281 44.373096 
L 236.639724 48.529515 
L 238.164301 49.894924 
L 239.688878 50.960916 
L 241.213455 51.673284 
L 242.738032 52.005738 
L 244.262609 51.960981 
L 245.787186 51.569791 
L 247.311764 50.888218 
L 249.598629 49.493755 
L 253.410072 46.978357 
L 254.934649 46.19298 
L 256.459226 45.663288 
L 257.983803 45.452282 
L 259.508381 45.599798 
L 261.032958 46.119703 
L 262.557535 46.998885 
L 264.082112 48.1981 
L 265.606689 49.654601 
L 268.655843 52.997688 
L 271.704998 56.246584 
L 273.229575 57.584212 
L 274.754152 58.614947 
L 276.278729 59.27414 
L 277.803306 59.520309 
L 277.803306 59.520309 
" clip-path="url(#p218c558293)" style="fill: none; stroke: #0010bd; stroke-linecap: square"/>
   </g>
   <g id="line2d_14">
    <path d="M 171.389468 111.84303 
L 171.389468 7.2 
" clip-path="url(#p218c558293)" style="fill: none; stroke-dasharray: 3.7,1.6; stroke-dashoffset: 0; stroke: #000000"/>
   </g>
   <g id="patch_3">
    <path d="M 38.482813 111.84303 
L 38.482813 7.2 
" style="fill: none; stroke: #000000; stroke-width: 0.8; stroke-linejoin: miter; stroke-linecap: square"/>
   </g>
   <g id="patch_4">
    <path d="M 289.19952 111.84303 
L 289.19952 7.2 
" style="fill: none; stroke: #000000; stroke-width: 0.8; stroke-linejoin: miter; stroke-linecap: square"/>
   </g>
   <g id="patch_5">
    <path d="M 38.482813 111.84303 
L 289.19952 111.84303 
" style="fill: none; stroke: #000000; stroke-width: 0.8; stroke-linejoin: miter; stroke-linecap: square"/>
   </g>
   <g id="patch_6">
    <path d="M 38.482813 7.2 
L 289.19952 7.2 
" style="fill: none; stroke: #000000; stroke-width: 0.8; stroke-linejoin: miter; stroke-linecap: square"/>
   </g>
  </g>
  <g id="axes_2">
   <g id="patch_7">
    <path d="M 38.482813 258.84327 
L 289.19952 258.84327 
L 289.19952 154.20024 
L 38.482813 154.20024 
z
" style="fill: #ffffff"/>
   </g>
   <g id="patch_8">
    <path d="M 49.879026 204.278731 
L 58.645345 204.278731 
L 58.645345 204.944243 
L 49.879026 204.944243 
z
" clip-path="url(#pa48e846d69)" style="fill: #ffbdbd"/>
   </g>
   <g id="patch_9">
    <path d="M 60.836925 204.278731 
L 69.603243 204.278731 
L 69.603243 211.111328 
L 60.836925 211.111328 
z
" clip-path="url(#pa48e846d69)" style="fill: #ffbdbd"/>
   </g>
   <g id="patch_10">
    <path d="M 71.794823 204.278731 
L 80.561141 204.278731 
L 80.561141 203.17761 
L 71.794823 203.17761 
z
" clip-path="url(#pa48e846d69)" style="fill: #ffbdbd"/>
   </g>
   <g id="patch_11">
    <path d="M 82.752721 204.278731 
L 91.519039 204.278731 
L 91.519039 178.774133 
L 82.752721 178.774133 
z
" clip-path="url(#pa48e846d69)" style="fill: #ffbdbd"/>
   </g>
   <g id="patch_12">
    <path d="M 93.710619 204.278731 
L 102.476937 204.278731 
L 102.476937 158.956741 
L 93.710619 158.956741 
z
" clip-path="url(#pa48e846d69)" style="fill: #ffbdbd"/>
   </g>
   <g id="patch_13">
    <path d="M 104.668517 204.278731 
L 113.434835 204.278731 
L 113.434835 162.273003 
L 104.668517 162.273003 
z
" clip-path="url(#pa48e846d69)" style="fill: #ffbdbd"/>
   </g>
   <g id="patch_14">
    <path d="M 115.626415 204.278731 
L 124.392733 204.278731 
L 124.392733 179.772061 
L 115.626415 179.772061 
z
" clip-path="url(#pa48e846d69)" style="fill: #ffbdbd"/>
   </g>
   <g id="patch_15">
    <path d="M 126.584313 204.278731 
L 135.350631 204.278731 
L 135.350631 190.346318 
L 126.584313 190.346318 
z
" clip-path="url(#pa48e846d69)" style="fill: #ffbdbd"/>
   </g>
   <g id="patch_16">
    <path d="M 137.542211 204.278731 
L 146.308529 204.278731 
L 146.308529 192.166399 
L 137.542211 192.166399 
z
" clip-path="url(#pa48e846d69)" style="fill: #ffbdbd"/>
   </g>
   <g id="patch_17">
    <path d="M 148.500109 204.278731 
L 157.266427 204.278731 
L 157.266427 199.279991 
L 148.500109 199.279991 
z
" clip-path="url(#pa48e846d69)" style="fill: #ffbdbd"/>
   </g>
   <g id="patch_18">
    <path d="M 159.458007 204.278731 
L 168.224325 204.278731 
L 168.224325 211.007804 
L 159.458007 211.007804 
z
" clip-path="url(#pa48e846d69)" style="fill: #ffbdbd"/>
   </g>
   <g id="patch_19">
    <path d="M 170.415905 204.278731 
L 179.182224 204.278731 
L 179.182224 209.277471 
L 170.415905 209.277471 
z
" clip-path="url(#pa48e846d69)" style="fill: #ffbdbd"/>
   </g>
   <g id="patch_20">
    <path d="M 181.373803 204.278731 
L 190.140122 204.278731 
L 190.140122 192.166399 
L 181.373803 192.166399 
z
" clip-path="url(#pa48e846d69)" style="fill: #ffbdbd"/>
   </g>
   <g id="patch_21">
    <path d="M 192.331701 204.278731 
L 201.09802 204.278731 
L 201.09802 186.501134 
L 192.331701 186.501134 
z
" clip-path="url(#pa48e846d69)" style="fill: #ffbdbd"/>
   </g>
   <g id="patch_22">
    <path d="M 203.289599 204.278731 
L 212.055918 204.278731 
L 212.055918 211.48207 
L 203.289599 211.48207 
z
" clip-path="url(#pa48e846d69)" style="fill: #ffbdbd"/>
   </g>
   <g id="patch_23">
    <path d="M 214.247497 204.278731 
L 223.013816 204.278731 
L 223.013816 246.284459 
L 214.247497 246.284459 
z
" clip-path="url(#pa48e846d69)" style="fill: #ffbdbd"/>
   </g>
   <g id="patch_24">
    <path d="M 225.205395 204.278731 
L 233.971714 204.278731 
L 233.971714 254.086769 
L 225.205395 254.086769 
z
" clip-path="url(#pa48e846d69)" style="fill: #ffbdbd"/>
   </g>
   <g id="patch_25">
    <path d="M 236.163293 204.278731 
L 244.929612 204.278731 
L 244.929612 229.783329 
L 236.163293 229.783329 
z
" clip-path="url(#pa48e846d69)" style="fill: #ffbdbd"/>
   </g>
   <g id="patch_26">
    <path d="M 247.121191 204.278731 
L 255.88751 204.278731 
L 255.88751 203.17761 
L 247.121191 203.17761 
z
" clip-path="url(#pa48e846d69)" style="fill: #ffbdbd"/>
   </g>
   <g id="patch_27">
    <path d="M 258.07909 204.278731 
L 266.845408 204.278731 
L 266.845408 197.446134 
L 258.07909 197.446134 
z
" clip-path="url(#pa48e846d69)" style="fill: #ffbdbd"/>
   </g>
   <g id="patch_28">
    <path d="M 269.036988 204.278731 
L 277.803306 204.278731 
L 277.803306 204.944243 
L 269.036988 204.944243 
z
" clip-path="url(#pa48e846d69)" style="fill: #ffbdbd"/>
   </g>
   <g id="patch_29">
    <path d="M 49.879026 204.278731 
L 58.645345 204.278731 
L 58.645345 204.278731 
L 49.879026 204.278731 
z
" clip-path="url(#pa48e846d69)" style="fill: #ff5757"/>
   </g>
   <g id="patch_30">
    <path d="M 60.836925 204.278731 
L 69.603243 204.278731 
L 69.603243 205.521021 
L 60.836925 205.521021 
z
" clip-path="url(#pa48e846d69)" style="fill: #ff5757"/>
   </g>
   <g id="patch_31">
    <path d="M 71.794823 204.278731 
L 80.561141 204.278731 
L 80.561141 204.278731 
L 71.794823 204.278731 
z
" clip-path="url(#pa48e846d69)" style="fill: #ff5757"/>
   </g>
   <g id="patch_32">
    <path d="M 82.752721 204.278731 
L 91.519039 204.278731 
L 91.519039 201.831795 
L 82.752721 201.831795 
z
" clip-path="url(#pa48e846d69)" style="fill: #ff5757"/>
   </g>
   <g id="patch_33">
    <path d="M 93.710619 204.278731 
L 102.476937 204.278731 
L 102.476937 204.278731 
L 93.710619 204.278731 
z
" clip-path="url(#pa48e846d69)" style="fill: #ff5757"/>
   </g>
   <g id="patch_34">
    <path d="M 104.668517 204.278731 
L 113.434835 204.278731 
L 113.434835 213.250828 
L 104.668517 213.250828 
z
" clip-path="url(#pa48e846d69)" style="fill: #ff5757"/>
   </g>
   <g id="patch_35">
    <path d="M 115.626415 204.278731 
L 124.392733 204.278731 
L 124.392733 220.133735 
L 115.626415 220.133735 
z
" clip-path="url(#pa48e846d69)" style="fill: #ff5757"/>
   </g>
   <g id="patch_36">
    <path d="M 126.584313 204.278731 
L 135.350631 204.278731 
L 135.350631 215.814284 
L 126.584313 215.814284 
z
" clip-path="url(#pa48e846d69)" style="fill: #ff5757"/>
   </g>
   <g id="patch_37">
    <path d="M 137.542211 204.278731 
L 146.308529 204.278731 
L 146.308529 204.278731 
L 137.542211 204.278731 
z
" clip-path="url(#pa48e846d69)" style="fill: #ff5757"/>
   </g>
   <g id="patch_38">
    <path d="M 148.500109 204.278731 
L 157.266427 204.278731 
L 157.266427 198.895472 
L 148.500109 198.895472 
z
" clip-path="url(#pa48e846d69)" style="fill: #ff5757"/>
   </g>
   <g id="patch_39">
    <path d="M 159.458007 204.278731 
L 168.224325 204.278731 
L 168.224325 204.278731 
L 159.458007 204.278731 
z
" clip-path="url(#pa48e846d69)" style="fill: #ff5757"/>
   </g>
   <g id="patch_40">
    <path d="M 170.415905 204.278731 
L 179.182224 204.278731 
L 179.182224 209.661989 
L 170.415905 209.661989 
z
" clip-path="url(#pa48e846d69)" style="fill: #ff5757"/>
   </g>
   <g id="patch_41">
    <path d="M 181.373803 204.278731 
L 190.140122 204.278731 
L 190.140122 204.278731 
L 181.373803 204.278731 
z
" clip-path="url(#pa48e846d69)" style="fill: #ff5757"/>
   </g>
   <g id="patch_42">
    <path d="M 192.331701 204.278731 
L 201.09802 204.278731 
L 201.09802 192.743177 
L 192.331701 192.743177 
z
" clip-path="url(#pa48e846d69)" style="fill: #ff5757"/>
   </g>
   <g id="patch_43">
    <path d="M 203.289599 204.278731 
L 212.055918 204.278731 
L 212.055918 188.423726 
L 203.289599 188.423726 
z
" clip-path="url(#pa48e846d69)" style="fill: #ff5757"/>
   </g>
   <g id="patch_44">
    <path d="M 214.247497 204.278731 
L 223.013816 204.278731 
L 223.013816 195.306633 
L 214.247497 195.306633 
z
" clip-path="url(#pa48e846d69)" style="fill: #ff5757"/>
   </g>
   <g id="patch_45">
    <path d="M 225.205395 204.278731 
L 233.971714 204.278731 
L 233.971714 204.278731 
L 225.205395 204.278731 
z
" clip-path="url(#pa48e846d69)" style="fill: #ff5757"/>
   </g>
   <g id="patch_46">
    <path d="M 236.163293 204.278731 
L 244.929612 204.278731 
L 244.929612 206.725666 
L 236.163293 206.725666 
z
" clip-path="url(#pa48e846d69)" style="fill: #ff5757"/>
   </g>
   <g id="patch_47">
    <path d="M 247.121191 204.278731 
L 255.88751 204.278731 
L 255.88751 204.278731 
L 247.121191 204.278731 
z
" clip-path="url(#pa48e846d69)" style="fill: #ff5757"/>
   </g>
   <g id="patch_48">
    <path d="M 258.07909 204.278731 
L 266.845408 204.278731 
L 266.845408 203.03644 
L 258.07909 203.03644 
z
" clip-path="url(#pa48e846d69)" style="fill: #ff5757"/>
   </g>
   <g id="patch_49">
    <path d="M 269.036988 204.278731 
L 277.803306 204.278731 
L 277.803306 204.278731 
L 269.036988 204.278731 
z
" clip-path="url(#pa48e846d69)" style="fill: #ff5757"/>
   </g>
   <g id="patch_50">
    <path d="M 49.879026 204.278731 
L 58.645345 204.278731 
L 58.645345 204.274699 
L 49.879026 204.274699 
z
" clip-path="url(#pa48e846d69)" style="fill: #bd0000"/>
   </g>
   <g id="patch_51">
    <path d="M 60.836925 204.278731 
L 69.603243 204.278731 
L 69.603243 203.839685 
L 60.836925 203.839685 
z
" clip-path="url(#pa48e846d69)" style="fill: #bd0000"/>
   </g>
   <g id="patch_52">
    <path d="M 71.794823 204.278731 
L 80.561141 204.278731 
L 80.561141 204.267693 
L 71.794823 204.267693 
z
" clip-path="url(#pa48e846d69)" style="fill: #bd0000"/>
   </g>
   <g id="patch_53">
    <path d="M 82.752721 204.278731 
L 91.519039 204.278731 
L 91.519039 198.302474 
L 82.752721 198.302474 
z
" clip-path="url(#pa48e846d69)" style="fill: #bd0000"/>
   </g>
   <g id="patch_54">
    <path d="M 93.710619 204.278731 
L 102.476937 204.278731 
L 102.476937 185.57919 
L 93.710619 185.57919 
z
" clip-path="url(#pa48e846d69)" style="fill: #bd0000"/>
   </g>
   <g id="patch_55">
    <path d="M 104.668517 204.278731 
L 113.434835 204.278731 
L 113.434835 187.482779 
L 104.668517 187.482779 
z
" clip-path="url(#pa48e846d69)" style="fill: #bd0000"/>
   </g>
   <g id="patch_56">
    <path d="M 115.626415 204.278731 
L 124.392733 204.278731 
L 124.392733 196.522848 
L 115.626415 196.522848 
z
" clip-path="url(#pa48e846d69)" style="fill: #bd0000"/>
   </g>
   <g id="patch_57">
    <path d="M 126.584313 204.278731 
L 135.350631 204.278731 
L 135.350631 201.300206 
L 126.584313 201.300206 
z
" clip-path="url(#pa48e846d69)" style="fill: #bd0000"/>
   </g>
   <g id="patch_58">
    <path d="M 137.542211 204.278731 
L 146.308529 204.278731 
L 146.308529 202.943155 
L 137.542211 202.943155 
z
" clip-path="url(#pa48e846d69)" style="fill: #bd0000"/>
   </g>
   <g id="patch_59">
    <path d="M 148.500109 204.278731 
L 157.266427 204.278731 
L 157.266427 203.787438 
L 148.500109 203.787438 
z
" clip-path="url(#pa48e846d69)" style="fill: #bd0000"/>
   </g>
   <g id="patch_60">
    <path d="M 159.458007 204.278731 
L 168.224325 204.278731 
L 168.224325 203.866516 
L 159.458007 203.866516 
z
" clip-path="url(#pa48e846d69)" style="fill: #bd0000"/>
   </g>
   <g id="patch_61">
    <path d="M 170.415905 204.278731 
L 179.182224 204.278731 
L 179.182224 203.787438 
L 170.415905 203.787438 
z
" clip-path="url(#pa48e846d69)" style="fill: #bd0000"/>
   </g>
   <g id="patch_62">
    <path d="M 181.373803 204.278731 
L 190.140122 204.278731 
L 190.140122 202.943155 
L 181.373803 202.943155 
z
" clip-path="url(#pa48e846d69)" style="fill: #bd0000"/>
   </g>
   <g id="patch_63">
    <path d="M 192.331701 204.278731 
L 201.09802 204.278731 
L 201.09802 200.190197 
L 192.331701 200.190197 
z
" clip-path="url(#pa48e846d69)" style="fill: #bd0000"/>
   </g>
   <g id="patch_64">
    <path d="M 203.289599 204.278731 
L 212.055918 204.278731 
L 212.055918 201.51789 
L 203.289599 201.51789 
z
" clip-path="url(#pa48e846d69)" style="fill: #bd0000"/>
   </g>
   <g id="patch_65">
    <path d="M 214.247497 204.278731 
L 223.013816 204.278731 
L 223.013816 187.482779 
L 214.247497 187.482779 
z
" clip-path="url(#pa48e846d69)" style="fill: #bd0000"/>
   </g>
   <g id="patch_66">
    <path d="M 225.205395 204.278731 
L 233.971714 204.278731 
L 233.971714 181.694158 
L 225.205395 181.694158 
z
" clip-path="url(#pa48e846d69)" style="fill: #bd0000"/>
   </g>
   <g id="patch_67">
    <path d="M 236.163293 204.278731 
L 244.929612 204.278731 
L 244.929612 198.302474 
L 236.163293 198.302474 
z
" clip-path="url(#pa48e846d69)" style="fill: #bd0000"/>
   </g>
   <g id="patch_68">
    <path d="M 247.121191 204.278731 
L 255.88751 204.278731 
L 255.88751 204.267693 
L 247.121191 204.267693 
z
" clip-path="url(#pa48e846d69)" style="fill: #bd0000"/>
   </g>
   <g id="patch_69">
    <path d="M 258.07909 204.278731 
L 266.845408 204.278731 
L 266.845408 203.839685 
L 258.07909 203.839685 
z
" clip-path="url(#pa48e846d69)" style="fill: #bd0000"/>
   </g>
   <g id="patch_70">
    <path d="M 269.036988 204.278731 
L 277.803306 204.278731 
L 277.803306 204.274699 
L 269.036988 204.274699 
z
" clip-path="url(#pa48e846d69)" style="fill: #bd0000"/>
   </g>
   <g id="matplotlib.axis_3">
    <g id="xtick_8">
     <g id="line2d_15">
      <g>
       <use xlink:href="#ma8ef2d7d1c" x="76.177982" y="258.84327" style="stroke: #000000; stroke-width: 0.8"/>
      </g>
     </g>
     <g id="text_12">
      <!-- −4 -->
      <g transform="translate(68.806888 273.441707)scale(0.1 -0.1)">
       <defs>
        <path id="DejaVuSans-34" d="M 2419 4116 
L 825 1625 
L 2419 1625 
L 2419 4116 
z
M 2253 4666 
L 3047 4666 
L 3047 1625 
L 3713 1625 
L 3713 1100 
L 3047 1100 
L 3047 0 
L 2419 0 
L 2419 1100 
L 313 1100 
L 313 1709 
L 2253 4666 
z
" transform="scale(0.015625)"/>
       </defs>
       <use xlink:href="#DejaVuSans-2212"/>
       <use xlink:href="#DejaVuSans-34" x="83.789062"/>
      </g>
     </g>
    </g>
    <g id="xtick_9">
     <g id="line2d_16">
      <g>
       <use xlink:href="#ma8ef2d7d1c" x="120.009574" y="258.84327" style="stroke: #000000; stroke-width: 0.8"/>
      </g>
     </g>
     <g id="text_13">
      <!-- −2 -->
      <g transform="translate(112.63848 273.441707)scale(0.1 -0.1)">
       <use xlink:href="#DejaVuSans-2212"/>
       <use xlink:href="#DejaVuSans-32" x="83.789062"/>
      </g>
     </g>
    </g>
    <g id="xtick_10">
     <g id="line2d_17">
      <g>
       <use xlink:href="#ma8ef2d7d1c" x="163.841166" y="258.84327" style="stroke: #000000; stroke-width: 0.8"/>
      </g>
     </g>
     <g id="text_14">
      <!-- 0 -->
      <g transform="translate(160.659916 273.441707)scale(0.1 -0.1)">
       <use xlink:href="#DejaVuSans-30"/>
      </g>
     </g>
    </g>
    <g id="xtick_11">
     <g id="line2d_18">
      <g>
       <use xlink:href="#ma8ef2d7d1c" x="207.672758" y="258.84327" style="stroke: #000000; stroke-width: 0.8"/>
      </g>
     </g>
     <g id="text_15">
      <!-- 2 -->
      <g transform="translate(204.491508 273.441707)scale(0.1 -0.1)">
       <use xlink:href="#DejaVuSans-32"/>
      </g>
     </g>
    </g>
    <g id="xtick_12">
     <g id="line2d_19">
      <g>
       <use xlink:href="#ma8ef2d7d1c" x="251.504351" y="258.84327" style="stroke: #000000; stroke-width: 0.8"/>
      </g>
     </g>
     <g id="text_16">
      <!-- 4 -->
      <g transform="translate(248.323101 273.441707)scale(0.1 -0.1)">
       <use xlink:href="#DejaVuSans-34"/>
      </g>
     </g>
    </g>
    <g id="text_17">
     <!-- $k_n$ -->
     <g transform="translate(158.541166 287.119832)scale(0.1 -0.1)">
      <defs>
       <path id="DejaVuSans-Oblique-6b" d="M 1172 4863 
L 1747 4863 
L 1197 2028 
L 3169 3500 
L 3916 3500 
L 1716 1825 
L 3322 0 
L 2625 0 
L 1131 1709 
L 800 0 
L 225 0 
L 1172 4863 
z
" transform="scale(0.015625)"/>
       <path id="DejaVuSans-Oblique-6e" d="M 3566 2113 
L 3156 0 
L 2578 0 
L 2988 2091 
Q 3016 2238 3031 2350 
Q 3047 2463 3047 2528 
Q 3047 2791 2881 2937 
Q 2716 3084 2419 3084 
Q 1956 3084 1622 2776 
Q 1288 2469 1184 1941 
L 800 0 
L 225 0 
L 903 3500 
L 1478 3500 
L 1363 2950 
Q 1603 3253 1940 3418 
Q 2278 3584 2650 3584 
Q 3113 3584 3367 3334 
Q 3622 3084 3622 2631 
Q 3622 2519 3608 2391 
Q 3594 2263 3566 2113 
z
" transform="scale(0.015625)"/>
      </defs>
      <use xlink:href="#DejaVuSans-Oblique-6b" transform="translate(0 0.015625)"/>
      <use xlink:href="#DejaVuSans-Oblique-6e" transform="translate(57.910156 -16.390625)scale(0.7)"/>
     </g>
    </g>
   </g>
   <g id="matplotlib.axis_4">
    <g id="ytick_4">
     <g id="line2d_20">
      <g>
       <use xlink:href="#mcb1afa8b3f" x="38.482813" y="248.217408" style="stroke: #000000; stroke-width: 0.8"/>
      </g>
     </g>
     <g id="text_18">
      <!-- −0.4 -->
      <g transform="translate(7.2 252.016627)scale(0.1 -0.1)">
       <use xlink:href="#DejaVuSans-2212"/>
       <use xlink:href="#DejaVuSans-30" x="83.789062"/>
       <use xlink:href="#DejaVuSans-2e" x="147.412109"/>
       <use xlink:href="#DejaVuSans-34" x="179.199219"/>
      </g>
     </g>
    </g>
    <g id="ytick_5">
     <g id="line2d_21">
      <g>
       <use xlink:href="#mcb1afa8b3f" x="38.482813" y="226.248069" style="stroke: #000000; stroke-width: 0.8"/>
      </g>
     </g>
     <g id="text_19">
      <!-- −0.2 -->
      <g transform="translate(7.2 230.047288)scale(0.1 -0.1)">
       <use xlink:href="#DejaVuSans-2212"/>
       <use xlink:href="#DejaVuSans-30" x="83.789062"/>
       <use xlink:href="#DejaVuSans-2e" x="147.412109"/>
       <use xlink:href="#DejaVuSans-32" x="179.199219"/>
      </g>
     </g>
    </g>
    <g id="ytick_6">
     <g id="line2d_22">
      <g>
       <use xlink:href="#mcb1afa8b3f" x="38.482813" y="204.278731" style="stroke: #000000; stroke-width: 0.8"/>
      </g>
     </g>
     <g id="text_20">
      <!-- 0.0 -->
      <g transform="translate(15.579688 208.077949)scale(0.1 -0.1)">
       <use xlink:href="#DejaVuSans-30"/>
       <use xlink:href="#DejaVuSans-2e" x="63.623047"/>
       <use xlink:href="#DejaVuSans-30" x="95.410156"/>
      </g>
     </g>
    </g>
    <g id="ytick_7">
     <g id="line2d_23">
      <g>
       <use xlink:href="#mcb1afa8b3f" x="38.482813" y="182.309392" style="stroke: #000000; stroke-width: 0.8"/>
      </g>
     </g>
     <g id="text_21">
      <!-- 0.2 -->
      <g transform="translate(15.579688 186.108611)scale(0.1 -0.1)">
       <use xlink:href="#DejaVuSans-30"/>
       <use xlink:href="#DejaVuSans-2e" x="63.623047"/>
       <use xlink:href="#DejaVuSans-32" x="95.410156"/>
      </g>
     </g>
    </g>
    <g id="ytick_8">
     <g id="line2d_24">
      <g>
       <use xlink:href="#mcb1afa8b3f" x="38.482813" y="160.340053" style="stroke: #000000; stroke-width: 0.8"/>
      </g>
     </g>
     <g id="text_22">
      <!-- 0.4 -->
      <g transform="translate(15.579688 164.139272)scale(0.1 -0.1)">
       <use xlink:href="#DejaVuSans-30"/>
       <use xlink:href="#DejaVuSans-2e" x="63.623047"/>
       <use xlink:href="#DejaVuSans-34" x="95.410156"/>
      </g>
     </g>
    </g>
   </g>
   <g id="line2d_25">
    <path d="M 164.505549 258.84327 
L 164.505549 154.20024 
" clip-path="url(#pa48e846d69)" style="fill: none; stroke-dasharray: 3.7,1.6; stroke-dashoffset: 0; stroke: #000000"/>
   </g>
   <g id="patch_71">
    <path d="M 38.482813 258.84327 
L 38.482813 154.20024 
" style="fill: none; stroke: #000000; stroke-width: 0.8; stroke-linejoin: miter; stroke-linecap: square"/>
   </g>
   <g id="patch_72">
    <path d="M 289.19952 258.84327 
L 289.19952 154.20024 
" style="fill: none; stroke: #000000; stroke-width: 0.8; stroke-linejoin: miter; stroke-linecap: square"/>
   </g>
   <g id="patch_73">
    <path d="M 38.482812 258.84327 
L 289.19952 258.84327 
" style="fill: none; stroke: #000000; stroke-width: 0.8; stroke-linejoin: miter; stroke-linecap: square"/>
   </g>
   <g id="patch_74">
    <path d="M 38.482812 154.20024 
L 289.19952 154.20024 
" style="fill: none; stroke: #000000; stroke-width: 0.8; stroke-linejoin: miter; stroke-linecap: square"/>
   </g>
  </g>
  <g id="axes_3">
   <g id="patch_75">
    <path d="M 326.482812 258.84327 
L 577.19952 258.84327 
L 577.19952 7.2 
L 326.482812 7.2 
z
" style="fill: #ffffff"/>
   </g>
   <g id="matplotlib.axis_5">
    <g id="xtick_13">
     <g id="line2d_26">
      <g>
       <use xlink:href="#ma8ef2d7d1c" x="337.879026" y="258.84327" style="stroke: #000000; stroke-width: 0.8"/>
      </g>
     </g>
     <g id="text_23">
      <!-- 0 -->
      <g transform="translate(334.697776 273.441707)scale(0.1 -0.1)">
       <use xlink:href="#DejaVuSans-30"/>
      </g>
     </g>
    </g>
    <g id="xtick_14">
     <g id="line2d_27">
      <g>
       <use xlink:href="#ma8ef2d7d1c" x="383.463882" y="258.84327" style="stroke: #000000; stroke-width: 0.8"/>
      </g>
     </g>
     <g id="text_24">
      <!-- 2 -->
      <g transform="translate(380.282632 273.441707)scale(0.1 -0.1)">
       <use xlink:href="#DejaVuSans-32"/>
      </g>
     </g>
    </g>
    <g id="xtick_15">
     <g id="line2d_28">
      <g>
       <use xlink:href="#ma8ef2d7d1c" x="429.048738" y="258.84327" style="stroke: #000000; stroke-width: 0.8"/>
      </g>
     </g>
     <g id="text_25">
      <!-- 4 -->
      <g transform="translate(425.867488 273.441707)scale(0.1 -0.1)">
       <use xlink:href="#DejaVuSans-34"/>
      </g>
     </g>
    </g>
    <g id="xtick_16">
     <g id="line2d_29">
      <g>
       <use xlink:href="#ma8ef2d7d1c" x="474.633594" y="258.84327" style="stroke: #000000; stroke-width: 0.8"/>
      </g>
     </g>
     <g id="text_26">
      <!-- 6 -->
      <g transform="translate(471.452344 273.441707)scale(0.1 -0.1)">
       <defs>
        <path id="DejaVuSans-36" d="M 2113 2584 
Q 1688 2584 1439 2293 
Q 1191 2003 1191 1497 
Q 1191 994 1439 701 
Q 1688 409 2113 409 
Q 2538 409 2786 701 
Q 3034 994 3034 1497 
Q 3034 2003 2786 2293 
Q 2538 2584 2113 2584 
z
M 3366 4563 
L 3366 3988 
Q 3128 4100 2886 4159 
Q 2644 4219 2406 4219 
Q 1781 4219 1451 3797 
Q 1122 3375 1075 2522 
Q 1259 2794 1537 2939 
Q 1816 3084 2150 3084 
Q 2853 3084 3261 2657 
Q 3669 2231 3669 1497 
Q 3669 778 3244 343 
Q 2819 -91 2113 -91 
Q 1303 -91 875 529 
Q 447 1150 447 2328 
Q 447 3434 972 4092 
Q 1497 4750 2381 4750 
Q 2619 4750 2861 4703 
Q 3103 4656 3366 4563 
z
" transform="scale(0.015625)"/>
       </defs>
       <use xlink:href="#DejaVuSans-36"/>
      </g>
     </g>
    </g>
    <g id="xtick_17">
     <g id="line2d_30">
      <g>
       <use xlink:href="#ma8ef2d7d1c" x="520.21845" y="258.84327" style="stroke: #000000; stroke-width: 0.8"/>
      </g>
     </g>
     <g id="text_27">
      <!-- 8 -->
      <g transform="translate(517.0372 273.441707)scale(0.1 -0.1)">
       <defs>
        <path id="DejaVuSans-38" d="M 2034 2216 
Q 1584 2216 1326 1975 
Q 1069 1734 1069 1313 
Q 1069 891 1326 650 
Q 1584 409 2034 409 
Q 2484 409 2743 651 
Q 3003 894 3003 1313 
Q 3003 1734 2745 1975 
Q 2488 2216 2034 2216 
z
M 1403 2484 
Q 997 2584 770 2862 
Q 544 3141 544 3541 
Q 544 4100 942 4425 
Q 1341 4750 2034 4750 
Q 2731 4750 3128 4425 
Q 3525 4100 3525 3541 
Q 3525 3141 3298 2862 
Q 3072 2584 2669 2484 
Q 3125 2378 3379 2068 
Q 3634 1759 3634 1313 
Q 3634 634 3220 271 
Q 2806 -91 2034 -91 
Q 1263 -91 848 271 
Q 434 634 434 1313 
Q 434 1759 690 2068 
Q 947 2378 1403 2484 
z
M 1172 3481 
Q 1172 3119 1398 2916 
Q 1625 2713 2034 2713 
Q 2441 2713 2670 2916 
Q 2900 3119 2900 3481 
Q 2900 3844 2670 4047 
Q 2441 4250 2034 4250 
Q 1625 4250 1398 4047 
Q 1172 3844 1172 3481 
z
" transform="scale(0.015625)"/>
       </defs>
       <use xlink:href="#DejaVuSans-38"/>
      </g>
     </g>
    </g>
    <g id="xtick_18">
     <g id="line2d_31">
      <g>
       <use xlink:href="#ma8ef2d7d1c" x="565.803306" y="258.84327" style="stroke: #000000; stroke-width: 0.8"/>
      </g>
     </g>
     <g id="text_28">
      <!-- 10 -->
      <g transform="translate(559.440806 273.441707)scale(0.1 -0.1)">
       <use xlink:href="#DejaVuSans-31"/>
       <use xlink:href="#DejaVuSans-30" x="63.623047"/>
      </g>
     </g>
    </g>
    <g id="text_29">
     <!-- $t$ -->
     <g transform="translate(449.841166 287.119832)scale(0.1 -0.1)">
      <defs>
       <path id="DejaVuSans-Oblique-74" d="M 2706 3500 
L 2619 3053 
L 1472 3053 
L 1100 1153 
Q 1081 1047 1072 975 
Q 1063 903 1063 863 
Q 1063 663 1183 572 
Q 1303 481 1569 481 
L 2150 481 
L 2053 0 
L 1503 0 
Q 991 0 739 200 
Q 488 400 488 806 
Q 488 878 497 964 
Q 506 1050 525 1153 
L 897 3053 
L 409 3053 
L 500 3500 
L 978 3500 
L 1172 4494 
L 1747 4494 
L 1556 3500 
L 2706 3500 
z
" transform="scale(0.015625)"/>
      </defs>
      <use xlink:href="#DejaVuSans-Oblique-74" transform="translate(0 0.78125)"/>
     </g>
    </g>
   </g>
   <g id="matplotlib.axis_6">
    <g id="ytick_9">
     <g id="line2d_32">
      <g>
       <use xlink:href="#mcb1afa8b3f" x="326.482812" y="229.544473" style="stroke: #000000; stroke-width: 0.8"/>
      </g>
     </g>
     <g id="text_30">
      <!-- −0.4 -->
      <g transform="translate(295.2 233.343692)scale(0.1 -0.1)">
       <use xlink:href="#DejaVuSans-2212"/>
       <use xlink:href="#DejaVuSans-30" x="83.789062"/>
       <use xlink:href="#DejaVuSans-2e" x="147.412109"/>
       <use xlink:href="#DejaVuSans-34" x="179.199219"/>
      </g>
     </g>
    </g>
    <g id="ytick_10">
     <g id="line2d_33">
      <g>
       <use xlink:href="#mcb1afa8b3f" x="326.482812" y="177.9642" style="stroke: #000000; stroke-width: 0.8"/>
      </g>
     </g>
     <g id="text_31">
      <!-- −0.2 -->
      <g transform="translate(295.2 181.763419)scale(0.1 -0.1)">
       <use xlink:href="#DejaVuSans-2212"/>
       <use xlink:href="#DejaVuSans-30" x="83.789062"/>
       <use xlink:href="#DejaVuSans-2e" x="147.412109"/>
       <use xlink:href="#DejaVuSans-32" x="179.199219"/>
      </g>
     </g>
    </g>
    <g id="ytick_11">
     <g id="line2d_34">
      <g>
       <use xlink:href="#mcb1afa8b3f" x="326.482812" y="126.383926" style="stroke: #000000; stroke-width: 0.8"/>
      </g>
     </g>
     <g id="text_32">
      <!-- 0.0 -->
      <g transform="translate(303.579687 130.183145)scale(0.1 -0.1)">
       <use xlink:href="#DejaVuSans-30"/>
       <use xlink:href="#DejaVuSans-2e" x="63.623047"/>
       <use xlink:href="#DejaVuSans-30" x="95.410156"/>
      </g>
     </g>
    </g>
    <g id="ytick_12">
     <g id="line2d_35">
      <g>
       <use xlink:href="#mcb1afa8b3f" x="326.482812" y="74.803653" style="stroke: #000000; stroke-width: 0.8"/>
      </g>
     </g>
     <g id="text_33">
      <!-- 0.2 -->
      <g transform="translate(303.579687 78.602871)scale(0.1 -0.1)">
       <use xlink:href="#DejaVuSans-30"/>
       <use xlink:href="#DejaVuSans-2e" x="63.623047"/>
       <use xlink:href="#DejaVuSans-32" x="95.410156"/>
      </g>
     </g>
    </g>
    <g id="ytick_13">
     <g id="line2d_36">
      <g>
       <use xlink:href="#mcb1afa8b3f" x="326.482812" y="23.223379" style="stroke: #000000; stroke-width: 0.8"/>
      </g>
     </g>
     <g id="text_34">
      <!-- 0.4 -->
      <g transform="translate(303.579687 27.022598)scale(0.1 -0.1)">
       <use xlink:href="#DejaVuSans-30"/>
       <use xlink:href="#DejaVuSans-2e" x="63.623047"/>
       <use xlink:href="#DejaVuSans-34" x="95.410156"/>
      </g>
     </g>
    </g>
   </g>
   <g id="line2d_37">
    <path d="M 337.879026 118.565588 
L 338.641315 119.334073 
L 340.165892 121.361503 
L 341.690469 124.033635 
L 343.215046 127.331773 
L 344.739624 131.228746 
L 346.264201 135.689235 
L 348.551066 143.340468 
L 350.837932 151.986322 
L 353.887086 164.701302 
L 358.460818 185.1653 
L 363.034549 205.448573 
L 366.083703 217.830057 
L 368.370569 226.099209 
L 369.895146 231.003516 
L 371.419723 235.352354 
L 372.9443 239.093957 
L 374.468877 242.183622 
L 375.993454 244.584273 
L 376.755743 245.516835 
L 377.518032 246.266931 
L 378.28032 246.832264 
L 379.042609 247.211083 
L 379.804897 247.402189 
L 380.567186 247.40494 
L 381.329474 247.219248 
L 382.091763 246.845587 
L 382.854052 246.284986 
L 383.61634 245.539025 
L 384.378629 244.609835 
L 385.903206 242.212989 
L 387.427783 239.122152 
L 388.95236 235.373195 
L 390.476937 231.009701 
L 392.001514 226.08241 
L 394.28838 217.761217 
L 396.575246 208.518532 
L 399.6244 195.178728 
L 408.771863 154.075997 
L 411.058728 144.911053 
L 413.345594 136.657117 
L 414.870171 131.755591 
L 416.394748 127.39186 
L 417.919325 123.606493 
L 419.443902 120.43219 
L 420.96848 117.893383 
L 422.493057 116.005935 
L 423.255345 115.309036 
L 424.017634 114.776953 
L 424.779922 114.409193 
L 425.542211 114.204713 
L 426.304499 114.161925 
L 427.066788 114.278698 
L 427.829077 114.552367 
L 428.591365 114.979743 
L 429.353654 115.557122 
L 430.878231 117.144579 
L 432.402808 119.275328 
L 433.927385 121.902681 
L 435.451962 124.973281 
L 437.738828 130.279044 
L 440.025694 136.226117 
L 443.837136 146.902262 
L 447.648579 157.505291 
L 449.935445 163.337463 
L 452.222311 168.473485 
L 453.746888 171.39951 
L 455.271465 173.856341 
L 456.796042 175.789822 
L 458.320619 177.152388 
L 459.082908 177.606671 
L 459.845196 177.90369 
L 460.607485 178.039616 
L 461.369773 178.011132 
L 462.132062 177.815446 
L 462.89435 177.450298 
L 463.656639 176.913971 
L 464.418927 176.205292 
L 465.181216 175.323641 
L 466.705793 173.04171 
L 468.23037 170.074298 
L 469.754947 166.436322 
L 471.279525 162.151337 
L 472.804102 157.251247 
L 474.328679 151.775922 
L 476.615544 142.589848 
L 478.90241 132.405824 
L 481.951564 117.654618 
L 487.287584 90.273805 
L 491.099027 71.069825 
L 494.148181 56.857118 
L 496.435047 47.248503 
L 498.721913 38.780458 
L 500.24649 33.860647 
L 501.771067 29.575619 
L 503.295644 25.963447 
L 504.820221 23.054123 
L 506.344798 20.869181 
L 507.107087 20.052707 
L 507.869375 19.421446 
L 508.631664 18.975617 
L 509.393953 18.714877 
L 510.156241 18.63833 
L 510.91853 18.744529 
L 511.680818 19.031475 
L 512.443107 19.496633 
L 513.205395 20.13693 
L 513.967684 20.948777 
L 515.492261 23.070206 
L 517.016838 25.822223 
L 518.541415 29.15869 
L 520.065992 33.026626 
L 522.352858 39.694169 
L 524.639724 47.201688 
L 527.688878 58.097304 
L 535.311764 85.954591 
L 537.598629 93.436556 
L 539.885495 100.099023 
L 541.410072 103.987281 
L 542.934649 107.37321 
L 544.459226 110.213585 
L 545.983803 112.472803 
L 547.508381 114.123327 
L 548.270669 114.71402 
L 549.032958 115.146044 
L 549.795246 115.418366 
L 550.557535 115.5305 
L 551.319823 115.482517 
L 552.082112 115.275036 
L 552.8444 114.909225 
L 553.606689 114.3868 
L 554.368978 113.710016 
L 555.893555 111.905046 
L 557.418132 109.522835 
L 558.942709 106.599905 
L 560.467286 103.180305 
L 561.991863 99.315047 
L 564.278729 92.808479 
L 565.803306 88.091808 
L 565.803306 88.091808 
" clip-path="url(#pd6ebb697ec)" style="fill: none; stroke: #4c4c4c; stroke-linecap: square"/>
   </g>
   <g id="line2d_38">
    <path d="M 337.879026 72.772462 
L 340.928181 72.370519 
L 343.215046 72.293996 
L 345.501912 72.488143 
L 347.026489 72.800084 
L 348.551066 73.278542 
L 350.075643 73.939238 
L 351.600221 74.795995 
L 353.124798 75.860545 
L 354.649375 77.142357 
L 356.173952 78.648504 
L 357.698529 80.383544 
L 359.985395 83.418871 
L 362.27226 86.968549 
L 364.559126 91.014767 
L 366.845992 95.52673 
L 369.132857 100.461373 
L 372.182012 107.603164 
L 375.993454 117.211302 
L 388.95236 150.752346 
L 392.001514 157.744438 
L 394.28838 162.541634 
L 396.575246 166.897305 
L 398.862111 170.771158 
L 401.148977 174.135376 
L 403.435843 176.975253 
L 404.96042 178.575997 
L 406.484997 179.94573 
L 408.009574 181.089918 
L 409.534151 182.016504 
L 411.058728 182.735793 
L 412.583305 183.260299 
L 414.107883 183.604567 
L 415.63246 183.784972 
L 417.919325 183.788035 
L 420.206191 183.529282 
L 423.255345 182.900055 
L 432.402808 180.709833 
L 434.689674 180.452027 
L 436.976539 180.424635 
L 439.263405 180.66911 
L 441.550271 181.215632 
L 443.837136 182.082166 
L 446.124002 183.273888 
L 448.410868 184.782982 
L 450.697733 186.588806 
L 452.984599 188.658442 
L 456.033753 191.750302 
L 460.607485 196.821137 
L 465.943505 202.728933 
L 468.992659 205.748719 
L 471.279525 207.704271 
L 473.56639 209.314288 
L 475.090967 210.162782 
L 476.615544 210.810576 
L 478.140122 211.241837 
L 479.664699 211.442753 
L 481.189276 211.401719 
L 482.713853 211.109487 
L 484.23843 210.559295 
L 485.763007 209.746961 
L 487.287584 208.670949 
L 488.812161 207.332393 
L 490.336739 205.7351 
L 491.861316 203.885505 
L 494.148181 200.658413 
L 496.435047 196.925084 
L 498.721913 192.737494 
L 501.771067 186.555725 
L 504.820221 179.846475 
L 510.156241 167.404254 
L 516.25455 153.251677 
L 519.303704 146.638286 
L 522.352858 140.540037 
L 524.639724 136.37635 
L 526.926589 132.605332 
L 529.213455 129.25058 
L 531.500321 126.32264 
L 533.787186 123.818871 
L 536.074052 121.723689 
L 538.360918 120.009178 
L 540.647784 118.636058 
L 542.934649 117.554981 
L 545.221515 116.70811 
L 548.270669 115.831077 
L 556.655843 113.612231 
L 558.942709 112.729664 
L 561.229575 111.608532 
L 563.51644 110.197165 
L 565.803306 108.453569 
L 565.803306 108.453569 
" clip-path="url(#pd6ebb697ec)" style="fill: none; stroke: #000000; stroke-linecap: square"/>
   </g>
   <g id="patch_76">
    <path d="M 326.482812 258.84327 
L 326.482812 7.2 
" style="fill: none; stroke: #000000; stroke-width: 0.8; stroke-linejoin: miter; stroke-linecap: square"/>
   </g>
   <g id="patch_77">
    <path d="M 577.19952 258.84327 
L 577.19952 7.2 
" style="fill: none; stroke: #000000; stroke-width: 0.8; stroke-linejoin: miter; stroke-linecap: square"/>
   </g>
   <g id="patch_78">
    <path d="M 326.482812 258.84327 
L 577.19952 258.84327 
" style="fill: none; stroke: #000000; stroke-width: 0.8; stroke-linejoin: miter; stroke-linecap: square"/>
   </g>
   <g id="patch_79">
    <path d="M 326.482812 7.2 
L 577.19952 7.2 
" style="fill: none; stroke: #000000; stroke-width: 0.8; stroke-linejoin: miter; stroke-linecap: square"/>
   </g>
   <g id="legend_1">
    <g id="patch_80">
     <path d="M 333.482812 47.2 
L 396.682812 47.2 
Q 398.682812 47.2 398.682812 45.2 
L 398.682812 14.2 
Q 398.682812 12.2 396.682812 12.2 
L 333.482812 12.2 
Q 331.482812 12.2 331.482812 14.2 
L 331.482812 45.2 
Q 331.482812 47.2 333.482812 47.2 
z
" style="fill: #ffffff; opacity: 0.8; stroke: #cccccc; stroke-linejoin: miter"/>
    </g>
    <g id="line2d_39">
     <path d="M 335.482812 21.220312 
L 345.482812 21.220312 
L 355.482812 21.220312 
" style="fill: none; stroke: #4c4c4c; stroke-linecap: square"/>
    </g>
    <g id="text_35">
     <!-- $\langle \hat{x} \rangle(t)$ -->
     <g transform="translate(363.482812 24.720312)scale(0.1 -0.1)">
      <defs>
       <path id="DejaVuSans-27e8" d="M 572 2006 
L 1453 4856 
L 1984 4856 
L 1103 2006 
L 1984 -844 
L 1453 -844 
L 572 2006 
z
" transform="scale(0.015625)"/>
       <path id="DejaVuSans-302" d="M -1831 5119 
L -1369 5119 
L -603 3944 
L -1038 3944 
L -1600 4709 
L -2163 3944 
L -2597 3944 
L -1831 5119 
z
M -1600 3584 
L -1600 3584 
z
" transform="scale(0.015625)"/>
       <path id="DejaVuSans-27e9" d="M 1925 2006 
L 1044 -844 
L 513 -844 
L 1394 2006 
L 513 4856 
L 1044 4856 
L 1925 2006 
z
" transform="scale(0.015625)"/>
       <path id="DejaVuSans-28" d="M 1984 4856 
Q 1566 4138 1362 3434 
Q 1159 2731 1159 2009 
Q 1159 1288 1364 580 
Q 1569 -128 1984 -844 
L 1484 -844 
Q 1016 -109 783 600 
Q 550 1309 550 2009 
Q 550 2706 781 3412 
Q 1013 4119 1484 4856 
L 1984 4856 
z
" transform="scale(0.015625)"/>
       <path id="DejaVuSans-29" d="M 513 4856 
L 1013 4856 
Q 1481 4119 1714 3412 
Q 1947 2706 1947 2009 
Q 1947 1309 1714 600 
Q 1481 -109 1013 -844 
L 513 -844 
Q 928 -128 1133 580 
Q 1338 1288 1338 2009 
Q 1338 2731 1133 3434 
Q 928 4138 513 4856 
z
" transform="scale(0.015625)"/>
      </defs>
      <use xlink:href="#DejaVuSans-27e8" transform="translate(0 0.828125)"/>
      <use xlink:href="#DejaVuSans-302" transform="translate(101.386719 12.015625)"/>
      <use xlink:href="#DejaVuSans-Oblique-78" transform="translate(39.013672 0.828125)"/>
      <use xlink:href="#DejaVuSans-27e9" transform="translate(98.193359 0.828125)"/>
      <use xlink:href="#DejaVuSans-28" transform="translate(137.207031 0.828125)"/>
      <use xlink:href="#DejaVuSans-Oblique-74" transform="translate(176.220703 0.828125)"/>
      <use xlink:href="#DejaVuSans-29" transform="translate(215.429688 0.828125)"/>
     </g>
    </g>
    <g id="line2d_40">
     <path d="M 335.482812 37.6 
L 345.482812 37.6 
L 355.482812 37.6 
" style="fill: none; stroke: #000000; stroke-linecap: square"/>
    </g>
    <g id="text_36">
     <!-- $\langle \hat{p}_R \rangle(t)$ -->
     <g transform="translate(363.482812 41.1)scale(0.1 -0.1)">
      <defs>
       <path id="DejaVuSans-Oblique-70" d="M 3175 2156 
Q 3175 2616 2975 2859 
Q 2775 3103 2400 3103 
Q 2144 3103 1911 2972 
Q 1678 2841 1497 2591 
Q 1319 2344 1212 1994 
Q 1106 1644 1106 1300 
Q 1106 863 1306 627 
Q 1506 391 1875 391 
Q 2147 391 2380 519 
Q 2613 647 2778 891 
Q 2956 1147 3065 1494 
Q 3175 1841 3175 2156 
z
M 1394 2969 
Q 1625 3272 1939 3428 
Q 2253 3584 2638 3584 
Q 3175 3584 3472 3232 
Q 3769 2881 3769 2247 
Q 3769 1728 3584 1258 
Q 3400 788 3053 416 
Q 2822 169 2531 39 
Q 2241 -91 1919 -91 
Q 1547 -91 1294 64 
Q 1041 219 916 525 
L 556 -1331 
L -19 -1331 
L 922 3500 
L 1497 3500 
L 1394 2969 
z
" transform="scale(0.015625)"/>
       <path id="DejaVuSans-Oblique-52" d="M 1613 4147 
L 1294 2491 
L 2106 2491 
Q 2584 2491 2879 2755 
Q 3175 3019 3175 3444 
Q 3175 3784 2976 3965 
Q 2778 4147 2406 4147 
L 1613 4147 
z
M 2772 2241 
Q 2972 2194 3105 2009 
Q 3238 1825 3413 1275 
L 3809 0 
L 3144 0 
L 2778 1197 
Q 2638 1659 2453 1815 
Q 2269 1972 1888 1972 
L 1191 1972 
L 806 0 
L 172 0 
L 1081 4666 
L 2503 4666 
Q 3150 4666 3495 4373 
Q 3841 4081 3841 3531 
Q 3841 3044 3547 2687 
Q 3253 2331 2772 2241 
z
" transform="scale(0.015625)"/>
      </defs>
      <use xlink:href="#DejaVuSans-27e8" transform="translate(0 0.515625)"/>
      <use xlink:href="#DejaVuSans-302" transform="translate(103.460938 13.015625)"/>
      <use xlink:href="#DejaVuSans-Oblique-70" transform="translate(39.013672 0.515625)"/>
      <use xlink:href="#DejaVuSans-Oblique-52" transform="translate(103.447266 -15.890625)scale(0.7)"/>
      <use xlink:href="#DejaVuSans-27e9" transform="translate(154.819336 0.515625)"/>
      <use xlink:href="#DejaVuSans-28" transform="translate(193.833008 0.515625)"/>
      <use xlink:href="#DejaVuSans-Oblique-74" transform="translate(232.84668 0.515625)"/>
      <use xlink:href="#DejaVuSans-29" transform="translate(272.055664 0.515625)"/>
     </g>
    </g>
   </g>
  </g>
 </g>
 <defs>
  <clipPath id="p218c558293">
   <rect x="38.482813" y="7.2" width="250.716708" height="104.64303"/>
  </clipPath>
  <clipPath id="pa48e846d69">
   <rect x="38.482813" y="154.20024" width="250.716708" height="104.64303"/>
  </clipPath>
  <clipPath id="pd6ebb697ec">
   <rect x="326.482812" y="7.2" width="250.716708" height="251.64327"/>
  </clipPath>
 </defs>
</svg>
