<?xml version="1.0" encoding="utf-8" standalone="no"?>
<!DOCTYPE svg PUBLIC "-//W3C//DTD SVG 1.1//EN"
  "http://www.w3.org/Graphics/SVG/1.1/DTD/svg11.dtd">
<svg xmlns:xlink="http://www.w3.org/1999/xlink" width="274.4375pt" height="172.8pt" viewBox="0 0 274.4375 172.8" xmlns="http://www.w3.org/2000/svg" version="1.1">
 <metadata>
  <rdf:RDF xmlns:dc="http://purl.org/dc/elements/1.1/" xmlns:cc="http://creativecommons.org/ns#" xmlns:rdf="http://www.w3.org/1999/02/22-rdf-syntax-ns#">
   <cc:Work>
    <dc:type rdf:resource="http://purl.org/dc/dcmitype/StillImage"/>
    <dc:date>2022-06-10T21:11:37.608087</dc:date>
    <dc:format>image/svg+xml</dc:format>
    <dc:creator>
     <cc:Agent>
      <dc:title>Matplotlib v3.5.2, https://matplotlib.org/</dc:title>
     </cc:Agent>
    </dc:creator>
   </cc:Work>
  </rdf:RDF>
 </metadata>
 <defs>
  <style type="text/css">*{stroke-linejoin: round; stroke-linecap: butt}</style>
 </defs>
 <g id="figure_1">
  <g id="patch_1">
   <path d="M 0 172.8 
L 274.4375 172.8 
L 274.4375 0 
L 0 0 
z
" style="fill: #ffffff"/>
  </g>
  <g id="axes_1">
   <g id="patch_2">
    <path d="M 38.482813 148.921875 
L 267.2375 148.921875 
L 267.2375 7.2 
L 38.482813 7.2 
z
" style="fill: #ffffff"/>
   </g>
   <g id="matplotlib.axis_1">
    <g id="xtick_1">
     <g id="line2d_1">
      <defs>
       <path id="m73f5a6835c" d="M 0 0 
L 0 3.5 
" style="stroke: #000000; stroke-width: 0.8"/>
      </defs>
      <g>
       <use xlink:href="#m73f5a6835c" x="53.467748" y="148.921875" style="stroke: #000000; stroke-width: 0.8"/>
      </g>
     </g>
     <g id="text_1">
      <!-- −3 -->
      <g transform="translate(46.096654 163.520312)scale(0.1 -0.1)">
       <defs>
        <path id="DejaVuSans-2212" d="M 678 2272 
L 4684 2272 
L 4684 1741 
L 678 1741 
L 678 2272 
z
" transform="scale(0.015625)"/>
        <path id="DejaVuSans-33" d="M 2597 2516 
Q 3050 2419 3304 2112 
Q 3559 1806 3559 1356 
Q 3559 666 3084 287 
Q 2609 -91 1734 -91 
Q 1441 -91 1130 -33 
Q 819 25 488 141 
L 488 750 
Q 750 597 1062 519 
Q 1375 441 1716 441 
Q 2309 441 2620 675 
Q 2931 909 2931 1356 
Q 2931 1769 2642 2001 
Q 2353 2234 1838 2234 
L 1294 2234 
L 1294 2753 
L 1863 2753 
Q 2328 2753 2575 2939 
Q 2822 3125 2822 3475 
Q 2822 3834 2567 4026 
Q 2313 4219 1838 4219 
Q 1578 4219 1281 4162 
Q 984 4106 628 3988 
L 628 4550 
Q 988 4650 1302 4700 
Q 1616 4750 1894 4750 
Q 2613 4750 3031 4423 
Q 3450 4097 3450 3541 
Q 3450 3153 3228 2886 
Q 3006 2619 2597 2516 
z
" transform="scale(0.015625)"/>
       </defs>
       <use xlink:href="#DejaVuSans-2212"/>
       <use xlink:href="#DejaVuSans-33" x="83.789062"/>
      </g>
     </g>
    </g>
    <g id="xtick_2">
     <g id="line2d_2">
      <g>
       <use xlink:href="#m73f5a6835c" x="86.598551" y="148.921875" style="stroke: #000000; stroke-width: 0.8"/>
      </g>
     </g>
     <g id="text_2">
      <!-- −2 -->
      <g transform="translate(79.227457 163.520312)scale(0.1 -0.1)">
       <defs>
        <path id="DejaVuSans-32" d="M 1228 531 
L 3431 531 
L 3431 0 
L 469 0 
L 469 531 
Q 828 903 1448 1529 
Q 2069 2156 2228 2338 
Q 2531 2678 2651 2914 
Q 2772 3150 2772 3378 
Q 2772 3750 2511 3984 
Q 2250 4219 1831 4219 
Q 1534 4219 1204 4116 
Q 875 4013 500 3803 
L 500 4441 
Q 881 4594 1212 4672 
Q 1544 4750 1819 4750 
Q 2544 4750 2975 4387 
Q 3406 4025 3406 3419 
Q 3406 3131 3298 2873 
Q 3191 2616 2906 2266 
Q 2828 2175 2409 1742 
Q 1991 1309 1228 531 
z
" transform="scale(0.015625)"/>
       </defs>
       <use xlink:href="#DejaVuSans-2212"/>
       <use xlink:href="#DejaVuSans-32" x="83.789062"/>
      </g>
     </g>
    </g>
    <g id="xtick_3">
     <g id="line2d_3">
      <g>
       <use xlink:href="#m73f5a6835c" x="119.729353" y="148.921875" style="stroke: #000000; stroke-width: 0.8"/>
      </g>
     </g>
     <g id="text_3">
      <!-- −1 -->
      <g transform="translate(112.35826 163.520312)scale(0.1 -0.1)">
       <defs>
        <path id="DejaVuSans-31" d="M 794 531 
L 1825 531 
L 1825 4091 
L 703 3866 
L 703 4441 
L 1819 4666 
L 2450 4666 
L 2450 531 
L 3481 531 
L 3481 0 
L 794 0 
L 794 531 
z
" transform="scale(0.015625)"/>
       </defs>
       <use xlink:href="#DejaVuSans-2212"/>
       <use xlink:href="#DejaVuSans-31" x="83.789062"/>
      </g>
     </g>
    </g>
    <g id="xtick_4">
     <g id="line2d_4">
      <g>
       <use xlink:href="#m73f5a6835c" x="152.860156" y="148.921875" style="stroke: #000000; stroke-width: 0.8"/>
      </g>
     </g>
     <g id="text_4">
      <!-- 0 -->
      <g transform="translate(149.678906 163.520312)scale(0.1 -0.1)">
       <defs>
        <path id="DejaVuSans-30" d="M 2034 4250 
Q 1547 4250 1301 3770 
Q 1056 3291 1056 2328 
Q 1056 1369 1301 889 
Q 1547 409 2034 409 
Q 2525 409 2770 889 
Q 3016 1369 3016 2328 
Q 3016 3291 2770 3770 
Q 2525 4250 2034 4250 
z
M 2034 4750 
Q 2819 4750 3233 4129 
Q 3647 3509 3647 2328 
Q 3647 1150 3233 529 
Q 2819 -91 2034 -91 
Q 1250 -91 836 529 
Q 422 1150 422 2328 
Q 422 3509 836 4129 
Q 1250 4750 2034 4750 
z
" transform="scale(0.015625)"/>
       </defs>
       <use xlink:href="#DejaVuSans-30"/>
      </g>
     </g>
    </g>
    <g id="xtick_5">
     <g id="line2d_5">
      <g>
       <use xlink:href="#m73f5a6835c" x="185.990959" y="148.921875" style="stroke: #000000; stroke-width: 0.8"/>
      </g>
     </g>
     <g id="text_5">
      <!-- 1 -->
      <g transform="translate(182.809709 163.520312)scale(0.1 -0.1)">
       <use xlink:href="#DejaVuSans-31"/>
      </g>
     </g>
    </g>
    <g id="xtick_6">
     <g id="line2d_6">
      <g>
       <use xlink:href="#m73f5a6835c" x="219.121762" y="148.921875" style="stroke: #000000; stroke-width: 0.8"/>
      </g>
     </g>
     <g id="text_6">
      <!-- 2 -->
      <g transform="translate(215.940512 163.520312)scale(0.1 -0.1)">
       <use xlink:href="#DejaVuSans-32"/>
      </g>
     </g>
    </g>
    <g id="xtick_7">
     <g id="line2d_7">
      <g>
       <use xlink:href="#m73f5a6835c" x="252.252565" y="148.921875" style="stroke: #000000; stroke-width: 0.8"/>
      </g>
     </g>
     <g id="text_7">
      <!-- 3 -->
      <g transform="translate(249.071315 163.520312)scale(0.1 -0.1)">
       <use xlink:href="#DejaVuSans-33"/>
      </g>
     </g>
    </g>
   </g>
   <g id="matplotlib.axis_2">
    <g id="ytick_1">
     <g id="line2d_8">
      <defs>
       <path id="ma05e916efa" d="M 0 0 
L -3.5 0 
" style="stroke: #000000; stroke-width: 0.8"/>
      </defs>
      <g>
       <use xlink:href="#ma05e916efa" x="38.482813" y="139.187184" style="stroke: #000000; stroke-width: 0.8"/>
      </g>
     </g>
     <g id="text_8">
      <!-- −0.6 -->
      <g transform="translate(7.2 142.986403)scale(0.1 -0.1)">
       <defs>
        <path id="DejaVuSans-2e" d="M 684 794 
L 1344 794 
L 1344 0 
L 684 0 
L 684 794 
z
" transform="scale(0.015625)"/>
        <path id="DejaVuSans-36" d="M 2113 2584 
Q 1688 2584 1439 2293 
Q 1191 2003 1191 1497 
Q 1191 994 1439 701 
Q 1688 409 2113 409 
Q 2538 409 2786 701 
Q 3034 994 3034 1497 
Q 3034 2003 2786 2293 
Q 2538 2584 2113 2584 
z
M 3366 4563 
L 3366 3988 
Q 3128 4100 2886 4159 
Q 2644 4219 2406 4219 
Q 1781 4219 1451 3797 
Q 1122 3375 1075 2522 
Q 1259 2794 1537 2939 
Q 1816 3084 2150 3084 
Q 2853 3084 3261 2657 
Q 3669 2231 3669 1497 
Q 3669 778 3244 343 
Q 2819 -91 2113 -91 
Q 1303 -91 875 529 
Q 447 1150 447 2328 
Q 447 3434 972 4092 
Q 1497 4750 2381 4750 
Q 2619 4750 2861 4703 
Q 3103 4656 3366 4563 
z
" transform="scale(0.015625)"/>
       </defs>
       <use xlink:href="#DejaVuSans-2212"/>
       <use xlink:href="#DejaVuSans-30" x="83.789062"/>
       <use xlink:href="#DejaVuSans-2e" x="147.412109"/>
       <use xlink:href="#DejaVuSans-36" x="179.199219"/>
      </g>
     </g>
    </g>
    <g id="ytick_2">
     <g id="line2d_9">
      <g>
       <use xlink:href="#ma05e916efa" x="38.482813" y="118.811769" style="stroke: #000000; stroke-width: 0.8"/>
      </g>
     </g>
     <g id="text_9">
      <!-- −0.4 -->
      <g transform="translate(7.2 122.610988)scale(0.1 -0.1)">
       <defs>
        <path id="DejaVuSans-34" d="M 2419 4116 
L 825 1625 
L 2419 1625 
L 2419 4116 
z
M 2253 4666 
L 3047 4666 
L 3047 1625 
L 3713 1625 
L 3713 1100 
L 3047 1100 
L 3047 0 
L 2419 0 
L 2419 1100 
L 313 1100 
L 313 1709 
L 2253 4666 
z
" transform="scale(0.015625)"/>
       </defs>
       <use xlink:href="#DejaVuSans-2212"/>
       <use xlink:href="#DejaVuSans-30" x="83.789062"/>
       <use xlink:href="#DejaVuSans-2e" x="147.412109"/>
       <use xlink:href="#DejaVuSans-34" x="179.199219"/>
      </g>
     </g>
    </g>
    <g id="ytick_3">
     <g id="line2d_10">
      <g>
       <use xlink:href="#ma05e916efa" x="38.482813" y="98.436353" style="stroke: #000000; stroke-width: 0.8"/>
      </g>
     </g>
     <g id="text_10">
      <!-- −0.2 -->
      <g transform="translate(7.2 102.235572)scale(0.1 -0.1)">
       <use xlink:href="#DejaVuSans-2212"/>
       <use xlink:href="#DejaVuSans-30" x="83.789062"/>
       <use xlink:href="#DejaVuSans-2e" x="147.412109"/>
       <use xlink:href="#DejaVuSans-32" x="179.199219"/>
      </g>
     </g>
    </g>
    <g id="ytick_4">
     <g id="line2d_11">
      <g>
       <use xlink:href="#ma05e916efa" x="38.482813" y="78.060937" style="stroke: #000000; stroke-width: 0.8"/>
      </g>
     </g>
     <g id="text_11">
      <!-- 0.0 -->
      <g transform="translate(15.579688 81.860156)scale(0.1 -0.1)">
       <use xlink:href="#DejaVuSans-30"/>
       <use xlink:href="#DejaVuSans-2e" x="63.623047"/>
       <use xlink:href="#DejaVuSans-30" x="95.410156"/>
      </g>
     </g>
    </g>
    <g id="ytick_5">
     <g id="line2d_12">
      <g>
       <use xlink:href="#ma05e916efa" x="38.482813" y="57.685522" style="stroke: #000000; stroke-width: 0.8"/>
      </g>
     </g>
     <g id="text_12">
      <!-- 0.2 -->
      <g transform="translate(15.579688 61.484741)scale(0.1 -0.1)">
       <use xlink:href="#DejaVuSans-30"/>
       <use xlink:href="#DejaVuSans-2e" x="63.623047"/>
       <use xlink:href="#DejaVuSans-32" x="95.410156"/>
      </g>
     </g>
    </g>
    <g id="ytick_6">
     <g id="line2d_13">
      <g>
       <use xlink:href="#ma05e916efa" x="38.482813" y="37.310106" style="stroke: #000000; stroke-width: 0.8"/>
      </g>
     </g>
     <g id="text_13">
      <!-- 0.4 -->
      <g transform="translate(15.579688 41.109325)scale(0.1 -0.1)">
       <use xlink:href="#DejaVuSans-30"/>
       <use xlink:href="#DejaVuSans-2e" x="63.623047"/>
       <use xlink:href="#DejaVuSans-34" x="95.410156"/>
      </g>
     </g>
    </g>
    <g id="ytick_7">
     <g id="line2d_14">
      <g>
       <use xlink:href="#ma05e916efa" x="38.482813" y="16.934691" style="stroke: #000000; stroke-width: 0.8"/>
      </g>
     </g>
     <g id="text_14">
      <!-- 0.6 -->
      <g transform="translate(15.579688 20.733909)scale(0.1 -0.1)">
       <use xlink:href="#DejaVuSans-30"/>
       <use xlink:href="#DejaVuSans-2e" x="63.623047"/>
       <use xlink:href="#DejaVuSans-36" x="95.410156"/>
      </g>
     </g>
    </g>
   </g>
   <g id="line2d_15">
    <path d="M 48.880753 78.059624 
L 49.576267 77.983571 
L 50.967296 77.487856 
L 52.358325 76.567661 
L 53.749354 75.290337 
L 55.835897 72.915273 
L 59.313469 68.729322 
L 60.704498 67.339328 
L 62.095527 66.278358 
L 63.486555 65.628657 
L 64.18207 65.47577 
L 64.877584 65.442855 
L 65.573099 65.531153 
L 66.268613 65.739638 
L 67.659642 66.501742 
L 69.050671 67.676423 
L 70.441699 69.178408 
L 73.223757 72.694107 
L 75.3103 75.231437 
L 76.701329 76.606271 
L 78.092358 77.575354 
L 78.787872 77.873476 
L 79.483387 78.03262 
L 80.178901 78.044382 
L 80.874415 77.902675 
L 81.56993 77.603859 
L 82.265444 77.146848 
L 82.960959 76.533159 
L 84.351987 74.854892 
L 85.743016 72.632783 
L 87.134045 69.968691 
L 89.220588 65.444901 
L 92.002646 59.301034 
L 93.393675 56.577914 
L 94.784704 54.309243 
L 96.175732 52.6344 
L 96.871247 52.054314 
L 97.566761 51.659366 
L 98.262276 51.456325 
L 98.95779 51.449039 
L 99.653304 51.638343 
L 100.348819 52.021999 
L 101.044333 52.594695 
L 101.739848 53.348091 
L 103.130876 55.349049 
L 104.521905 57.902172 
L 106.608448 62.407734 
L 109.390506 68.638529 
L 110.781535 71.37698 
L 112.172564 73.598178 
L 112.868078 74.460549 
L 113.563592 75.132834 
L 114.259107 75.599838 
L 114.954621 75.849303 
L 115.650136 75.872118 
L 116.34565 75.662497 
L 117.041164 75.218101 
L 117.736679 74.540112 
L 118.432193 73.633254 
L 119.823222 71.169255 
L 121.214251 67.932053 
L 122.60528 64.076585 
L 124.691823 57.570445 
L 127.473881 48.77016 
L 128.864909 44.86207 
L 130.255938 41.58384 
L 131.646967 39.124655 
L 132.342481 38.24953 
L 133.037996 37.629567 
L 133.73351 37.274485 
L 134.429025 37.190252 
L 135.124539 37.378974 
L 135.820053 37.838834 
L 136.515568 38.564096 
L 137.211082 39.545158 
L 137.906597 40.768672 
L 139.297625 43.872003 
L 140.688654 47.700179 
L 142.775197 54.316463 
L 146.252769 65.521414 
L 147.643798 69.296209 
L 149.034827 72.311035 
L 149.730341 73.473479 
L 150.425856 74.380158 
L 151.12137 75.016141 
L 151.816885 75.370295 
L 152.512399 75.435467 
L 153.207913 75.208588 
L 153.903428 74.690733 
L 154.598942 73.887113 
L 155.294457 72.807008 
L 155.989971 71.463645 
L 157.381 68.058635 
L 158.772029 63.848567 
L 160.858572 56.520573 
L 164.336144 43.82685 
L 165.727173 39.380943 
L 167.118202 35.670192 
L 168.50923 32.894138 
L 169.204745 31.90518 
L 169.900259 31.200979 
L 170.595774 30.790733 
L 171.291288 30.67962 
L 171.986802 30.86875 
L 172.682317 31.355164 
L 173.377831 32.131897 
L 174.073346 33.188098 
L 174.76886 34.509208 
L 176.159889 37.870767 
L 177.550918 42.035707 
L 179.637461 49.298204 
L 183.810547 64.326758 
L 185.201576 68.571922 
L 186.592605 72.085161 
L 187.983634 74.719139 
L 188.679148 75.674741 
L 189.374662 76.379583 
L 190.070177 76.830822 
L 190.765691 77.029238 
L 191.461206 76.97917 
L 192.15672 76.688401 
L 192.852234 76.167992 
L 193.547749 75.432065 
L 194.938778 73.383903 
L 196.329807 70.707528 
L 198.41635 65.941436 
L 201.893922 57.745956 
L 203.284951 54.959319 
L 204.675979 52.697863 
L 206.067008 51.073617 
L 206.762523 50.523285 
L 207.458037 50.153776 
L 208.153551 49.966087 
L 208.849066 49.958272 
L 209.54458 50.125538 
L 210.240095 50.460375 
L 210.935609 50.952731 
L 212.326638 52.358405 
L 213.717667 54.220268 
L 215.80421 57.54488 
L 218.586267 62.129718 
L 219.977296 64.143401 
L 221.368325 65.801279 
L 222.759354 67.012406 
L 224.150383 67.721925 
L 224.845897 67.882046 
L 225.541411 67.913851 
L 226.236926 67.821431 
L 227.627955 67.291628 
L 229.018983 66.368548 
L 230.410012 65.156263 
L 235.278613 60.50457 
L 236.669642 59.601632 
L 238.060671 59.091235 
L 238.756185 59.006462 
L 239.4517 59.043634 
L 240.147214 59.206249 
L 240.842728 59.495524 
L 242.233757 60.447429 
L 243.624786 61.863597 
L 245.015815 63.674374 
L 247.102358 66.907791 
L 251.275444 73.625579 
L 252.666473 75.437177 
L 254.057502 76.83314 
L 255.448531 77.725908 
L 256.144045 77.964694 
L 256.83956 78.059304 
L 256.83956 78.059304 
" clip-path="url(#pb1a493e2e1)" style="fill: none; stroke: #0010bd; stroke-linecap: square"/>
   </g>
   <g id="line2d_16">
    <path d="M 48.880753 78.425819 
L 52.358325 90.363574 
L 54.444868 96.935149 
L 56.531411 102.725034 
L 57.92244 106.0287 
L 59.313469 108.812676 
L 60.704498 111.022697 
L 62.095527 112.614203 
L 62.791041 113.166936 
L 63.486555 113.553114 
L 64.18207 113.770212 
L 64.877584 113.816428 
L 65.573099 113.690686 
L 66.268613 113.392648 
L 66.964127 112.922711 
L 67.659642 112.282011 
L 69.050671 110.496536 
L 70.441699 108.059864 
L 71.832728 105.006925 
L 73.223757 101.383405 
L 74.614786 97.245044 
L 76.701329 90.216449 
L 79.483387 79.714132 
L 87.134045 49.651965 
L 89.220588 42.610411 
L 90.611617 38.483701 
L 92.002646 34.899715 
L 93.393675 31.925527 
L 94.784704 29.619073 
L 95.480218 28.731603 
L 96.175732 28.028153 
L 96.871247 27.512976 
L 97.566761 27.189598 
L 98.262276 27.060799 
L 98.95779 27.128601 
L 99.653304 27.394256 
L 100.348819 27.858238 
L 101.044333 28.520239 
L 101.739848 29.37917 
L 103.130876 31.679552 
L 104.521905 34.735131 
L 105.912934 38.509545 
L 107.303963 42.954816 
L 108.694992 48.012023 
L 110.781535 56.591745 
L 112.868078 66.120971 
L 116.34565 83.26779 
L 121.214251 107.273179 
L 123.300794 116.59705 
L 125.387337 124.86958 
L 126.778366 129.656533 
L 128.169395 133.771951 
L 129.560424 137.150158 
L 130.951453 139.736134 
L 131.646967 140.717976 
L 132.342481 141.486396 
L 133.037996 142.037879 
L 133.73351 142.369706 
L 134.429025 142.479972 
L 135.124539 142.367589 
L 135.820053 142.032296 
L 136.515568 141.474658 
L 137.211082 140.696068 
L 137.906597 139.698739 
L 139.297625 137.06079 
L 140.688654 133.59462 
L 142.079683 129.346408 
L 143.470712 124.374037 
L 144.861741 118.746237 
L 146.948284 109.249876 
L 149.730341 95.096337 
L 159.467543 43.580299 
L 161.554086 34.484502 
L 162.945115 29.175185 
L 164.336144 24.556958 
L 165.727173 20.693246 
L 167.118202 17.636173 
L 168.50923 15.425807 
L 169.204745 14.647217 
L 169.900259 14.089579 
L 170.595774 13.754286 
L 171.291288 13.641903 
L 171.986802 13.752169 
L 172.682317 14.083996 
L 173.377831 14.635479 
L 174.073346 15.403899 
L 174.76886 16.385741 
L 176.159889 18.971717 
L 177.550918 22.349924 
L 178.941946 26.465342 
L 180.332975 31.252295 
L 182.419518 39.524825 
L 184.506062 48.848696 
L 187.288119 62.358583 
L 193.547749 93.264528 
L 195.634292 102.509718 
L 197.720835 110.71086 
L 199.111864 115.470116 
L 200.502893 119.586658 
L 201.893922 123.00694 
L 203.284951 125.688718 
L 204.675979 127.601636 
L 205.371494 128.263637 
L 206.067008 128.727619 
L 206.762523 128.993274 
L 207.458037 129.061076 
L 208.153551 128.932277 
L 208.849066 128.608899 
L 209.54458 128.093722 
L 210.240095 127.390272 
L 211.631123 125.436277 
L 213.022152 122.789326 
L 214.413181 119.502401 
L 215.80421 115.63814 
L 217.890753 108.91711 
L 219.977296 101.329254 
L 223.454868 87.571883 
L 227.627955 71.029333 
L 229.714498 63.465113 
L 231.801041 56.747149 
L 233.19207 52.858645 
L 234.583099 49.514058 
L 235.974128 46.764199 
L 237.365156 44.649455 
L 238.756185 43.199164 
L 239.4517 42.729227 
L 240.147214 42.431189 
L 240.842728 42.305447 
L 241.538243 42.351663 
L 242.233757 42.568761 
L 242.929272 42.954939 
L 243.624786 43.507672 
L 245.015815 45.099178 
L 246.406844 47.309199 
L 247.797872 50.093175 
L 249.188901 53.396841 
L 251.275444 59.186726 
L 253.361988 65.758301 
L 256.83956 77.696056 
L 256.83956 77.696056 
" clip-path="url(#pb1a493e2e1)" style="fill: none; stroke: #5765ff; stroke-linecap: square"/>
   </g>
   <g id="line2d_17">
    <path d="M 48.880753 78.034875 
L 55.140382 76.557169 
L 58.617954 75.924087 
L 62.095527 75.521917 
L 64.877584 75.407962 
L 67.659642 75.504541 
L 70.441699 75.826974 
L 73.223757 76.381787 
L 76.005815 77.16628 
L 78.787872 78.168403 
L 82.265444 79.693924 
L 85.743016 81.465352 
L 91.307131 84.608171 
L 98.262276 88.519718 
L 101.739848 90.216517 
L 104.521905 91.349677 
L 107.303963 92.227056 
L 109.390506 92.689004 
L 111.477049 92.963649 
L 113.563592 93.036445 
L 115.650136 92.895736 
L 117.736679 92.533041 
L 119.823222 91.943275 
L 121.909765 91.124934 
L 123.996308 90.080212 
L 126.082852 88.815062 
L 128.169395 87.339199 
L 130.951453 85.067302 
L 133.73351 82.486651 
L 137.211082 78.906851 
L 141.384169 74.255295 
L 151.12137 63.258291 
L 154.598942 59.78143 
L 157.381 57.342599 
L 159.467543 55.761302 
L 161.554086 54.423502 
L 163.64063 53.35408 
L 165.727173 52.574613 
L 167.813716 52.102986 
L 169.900259 51.953066 
L 171.291288 52.036753 
L 172.682317 52.269491 
L 174.76886 52.899597 
L 176.855403 53.865491 
L 178.941946 55.161227 
L 181.02849 56.776105 
L 183.115033 58.694762 
L 185.201576 60.897319 
L 187.983634 64.233318 
L 190.765691 67.962373 
L 194.243263 73.054643 
L 199.111864 80.670084 
L 206.067008 91.561927 
L 209.54458 96.573024 
L 212.326638 100.197396 
L 214.413181 102.632044 
L 216.499724 104.78515 
L 218.586267 106.625888 
L 220.672811 108.127386 
L 222.759354 109.267137 
L 224.150383 109.817011 
L 225.541411 110.194045 
L 226.93244 110.395205 
L 228.323469 110.418496 
L 229.714498 110.262976 
L 231.105527 109.928769 
L 232.496556 109.41707 
L 233.887584 108.730132 
L 235.974128 107.378681 
L 238.060671 105.656155 
L 240.147214 103.583117 
L 242.233757 101.184912 
L 244.3203 98.491331 
L 247.102358 94.499425 
L 249.884416 90.132874 
L 254.057502 83.099168 
L 256.83956 78.24338 
L 256.83956 78.24338 
" clip-path="url(#pb1a493e2e1)" style="fill: none; stroke: #bdc2ff; stroke-linecap: square"/>
   </g>
   <g id="line2d_18">
    <path d="M 159.74725 148.921875 
L 159.74725 7.2 
" clip-path="url(#pb1a493e2e1)" style="fill: none; stroke-dasharray: 3.7,1.6; stroke-dashoffset: 0; stroke: #000000"/>
   </g>
   <g id="patch_3">
    <path d="M 38.482813 148.921875 
L 38.482813 7.2 
" style="fill: none; stroke: #000000; stroke-width: 0.8; stroke-linejoin: miter; stroke-linecap: square"/>
   </g>
   <g id="patch_4">
    <path d="M 267.2375 148.921875 
L 267.2375 7.2 
" style="fill: none; stroke: #000000; stroke-width: 0.8; stroke-linejoin: miter; stroke-linecap: square"/>
   </g>
   <g id="patch_5">
    <path d="M 38.482813 148.921875 
L 267.2375 148.921875 
" style="fill: none; stroke: #000000; stroke-width: 0.8; stroke-linejoin: miter; stroke-linecap: square"/>
   </g>
   <g id="patch_6">
    <path d="M 38.482813 7.2 
L 267.2375 7.2 
" style="fill: none; stroke: #000000; stroke-width: 0.8; stroke-linejoin: miter; stroke-linecap: square"/>
   </g>
  </g>
 </g>
 <defs>
  <clipPath id="pb1a493e2e1">
   <rect x="38.482813" y="7.2" width="228.754688" height="141.721875"/>
  </clipPath>
 </defs>
</svg>
