<?xml version="1.0" encoding="utf-8" standalone="no"?>
<!DOCTYPE svg PUBLIC "-//W3C//DTD SVG 1.1//EN"
  "http://www.w3.org/Graphics/SVG/1.1/DTD/svg11.dtd">
<svg xmlns:xlink="http://www.w3.org/1999/xlink" width="316.8pt" height="244.8pt" viewBox="0 0 316.8 244.8" xmlns="http://www.w3.org/2000/svg" version="1.1">
 <metadata>
  <rdf:RDF xmlns:dc="http://purl.org/dc/elements/1.1/" xmlns:cc="http://creativecommons.org/ns#" xmlns:rdf="http://www.w3.org/1999/02/22-rdf-syntax-ns#">
   <cc:Work>
    <dc:type rdf:resource="http://purl.org/dc/dcmitype/StillImage"/>
    <dc:date>2022-06-10T21:11:40.522360</dc:date>
    <dc:format>image/svg+xml</dc:format>
    <dc:creator>
     <cc:Agent>
      <dc:title>Matplotlib v3.5.2, https://matplotlib.org/</dc:title>
     </cc:Agent>
    </dc:creator>
   </cc:Work>
  </rdf:RDF>
 </metadata>
 <defs>
  <style type="text/css">*{stroke-linejoin: round; stroke-linecap: butt}</style>
 </defs>
 <g id="figure_1">
  <g id="patch_1">
   <path d="M -0 244.8 
L 316.8 244.8 
L 316.8 0 
L -0 0 
z
" style="fill: #ffffff"/>
  </g>
  <g id="axes_1">
   <g id="patch_2">
    <path d="M 44.845313 100.321875 
L 309.6 100.321875 
L 309.6 7.2 
L 44.845313 7.2 
z
" style="fill: #ffffff"/>
   </g>
   <g id="matplotlib.axis_1">
    <g id="xtick_1">
     <g id="line2d_1">
      <defs>
       <path id="m1291955b61" d="M 0 0 
L 0 3.5 
" style="stroke: #000000; stroke-width: 0.8"/>
      </defs>
      <g>
       <use xlink:href="#m1291955b61" x="62.188484" y="100.321875" style="stroke: #000000; stroke-width: 0.8"/>
      </g>
     </g>
     <g id="text_1">
      <!-- −3 -->
      <g transform="translate(54.81739 114.920312)scale(0.1 -0.1)">
       <defs>
        <path id="DejaVuSans-2212" d="M 678 2272 
L 4684 2272 
L 4684 1741 
L 678 1741 
L 678 2272 
z
" transform="scale(0.015625)"/>
        <path id="DejaVuSans-33" d="M 2597 2516 
Q 3050 2419 3304 2112 
Q 3559 1806 3559 1356 
Q 3559 666 3084 287 
Q 2609 -91 1734 -91 
Q 1441 -91 1130 -33 
Q 819 25 488 141 
L 488 750 
Q 750 597 1062 519 
Q 1375 441 1716 441 
Q 2309 441 2620 675 
Q 2931 909 2931 1356 
Q 2931 1769 2642 2001 
Q 2353 2234 1838 2234 
L 1294 2234 
L 1294 2753 
L 1863 2753 
Q 2328 2753 2575 2939 
Q 2822 3125 2822 3475 
Q 2822 3834 2567 4026 
Q 2313 4219 1838 4219 
Q 1578 4219 1281 4162 
Q 984 4106 628 3988 
L 628 4550 
Q 988 4650 1302 4700 
Q 1616 4750 1894 4750 
Q 2613 4750 3031 4423 
Q 3450 4097 3450 3541 
Q 3450 3153 3228 2886 
Q 3006 2619 2597 2516 
z
" transform="scale(0.015625)"/>
       </defs>
       <use xlink:href="#DejaVuSans-2212"/>
       <use xlink:href="#DejaVuSans-33" x="83.789062"/>
      </g>
     </g>
    </g>
    <g id="xtick_2">
     <g id="line2d_2">
      <g>
       <use xlink:href="#m1291955b61" x="100.533208" y="100.321875" style="stroke: #000000; stroke-width: 0.8"/>
      </g>
     </g>
     <g id="text_2">
      <!-- −2 -->
      <g transform="translate(93.162114 114.920312)scale(0.1 -0.1)">
       <defs>
        <path id="DejaVuSans-32" d="M 1228 531 
L 3431 531 
L 3431 0 
L 469 0 
L 469 531 
Q 828 903 1448 1529 
Q 2069 2156 2228 2338 
Q 2531 2678 2651 2914 
Q 2772 3150 2772 3378 
Q 2772 3750 2511 3984 
Q 2250 4219 1831 4219 
Q 1534 4219 1204 4116 
Q 875 4013 500 3803 
L 500 4441 
Q 881 4594 1212 4672 
Q 1544 4750 1819 4750 
Q 2544 4750 2975 4387 
Q 3406 4025 3406 3419 
Q 3406 3131 3298 2873 
Q 3191 2616 2906 2266 
Q 2828 2175 2409 1742 
Q 1991 1309 1228 531 
z
" transform="scale(0.015625)"/>
       </defs>
       <use xlink:href="#DejaVuSans-2212"/>
       <use xlink:href="#DejaVuSans-32" x="83.789062"/>
      </g>
     </g>
    </g>
    <g id="xtick_3">
     <g id="line2d_3">
      <g>
       <use xlink:href="#m1291955b61" x="138.877932" y="100.321875" style="stroke: #000000; stroke-width: 0.8"/>
      </g>
     </g>
     <g id="text_3">
      <!-- −1 -->
      <g transform="translate(131.506838 114.920312)scale(0.1 -0.1)">
       <defs>
        <path id="DejaVuSans-31" d="M 794 531 
L 1825 531 
L 1825 4091 
L 703 3866 
L 703 4441 
L 1819 4666 
L 2450 4666 
L 2450 531 
L 3481 531 
L 3481 0 
L 794 0 
L 794 531 
z
" transform="scale(0.015625)"/>
       </defs>
       <use xlink:href="#DejaVuSans-2212"/>
       <use xlink:href="#DejaVuSans-31" x="83.789062"/>
      </g>
     </g>
    </g>
    <g id="xtick_4">
     <g id="line2d_4">
      <g>
       <use xlink:href="#m1291955b61" x="177.222656" y="100.321875" style="stroke: #000000; stroke-width: 0.8"/>
      </g>
     </g>
     <g id="text_4">
      <!-- 0 -->
      <g transform="translate(174.041406 114.920312)scale(0.1 -0.1)">
       <defs>
        <path id="DejaVuSans-30" d="M 2034 4250 
Q 1547 4250 1301 3770 
Q 1056 3291 1056 2328 
Q 1056 1369 1301 889 
Q 1547 409 2034 409 
Q 2525 409 2770 889 
Q 3016 1369 3016 2328 
Q 3016 3291 2770 3770 
Q 2525 4250 2034 4250 
z
M 2034 4750 
Q 2819 4750 3233 4129 
Q 3647 3509 3647 2328 
Q 3647 1150 3233 529 
Q 2819 -91 2034 -91 
Q 1250 -91 836 529 
Q 422 1150 422 2328 
Q 422 3509 836 4129 
Q 1250 4750 2034 4750 
z
" transform="scale(0.015625)"/>
       </defs>
       <use xlink:href="#DejaVuSans-30"/>
      </g>
     </g>
    </g>
    <g id="xtick_5">
     <g id="line2d_5">
      <g>
       <use xlink:href="#m1291955b61" x="215.56738" y="100.321875" style="stroke: #000000; stroke-width: 0.8"/>
      </g>
     </g>
     <g id="text_5">
      <!-- 1 -->
      <g transform="translate(212.38613 114.920312)scale(0.1 -0.1)">
       <use xlink:href="#DejaVuSans-31"/>
      </g>
     </g>
    </g>
    <g id="xtick_6">
     <g id="line2d_6">
      <g>
       <use xlink:href="#m1291955b61" x="253.912104" y="100.321875" style="stroke: #000000; stroke-width: 0.8"/>
      </g>
     </g>
     <g id="text_6">
      <!-- 2 -->
      <g transform="translate(250.730854 114.920312)scale(0.1 -0.1)">
       <use xlink:href="#DejaVuSans-32"/>
      </g>
     </g>
    </g>
    <g id="xtick_7">
     <g id="line2d_7">
      <g>
       <use xlink:href="#m1291955b61" x="292.256828" y="100.321875" style="stroke: #000000; stroke-width: 0.8"/>
      </g>
     </g>
     <g id="text_7">
      <!-- 3 -->
      <g transform="translate(289.075578 114.920312)scale(0.1 -0.1)">
       <use xlink:href="#DejaVuSans-33"/>
      </g>
     </g>
    </g>
   </g>
   <g id="matplotlib.axis_2">
    <g id="ytick_1">
     <g id="line2d_8">
      <defs>
       <path id="mf413d230fc" d="M 0 0 
L -3.5 0 
" style="stroke: #000000; stroke-width: 0.8"/>
      </defs>
      <g>
       <use xlink:href="#mf413d230fc" x="44.845313" y="87.231369" style="stroke: #000000; stroke-width: 0.8"/>
      </g>
     </g>
     <g id="text_8">
      <!-- −0.5 -->
      <g transform="translate(13.5625 91.030587)scale(0.1 -0.1)">
       <defs>
        <path id="DejaVuSans-2e" d="M 684 794 
L 1344 794 
L 1344 0 
L 684 0 
L 684 794 
z
" transform="scale(0.015625)"/>
        <path id="DejaVuSans-35" d="M 691 4666 
L 3169 4666 
L 3169 4134 
L 1269 4134 
L 1269 2991 
Q 1406 3038 1543 3061 
Q 1681 3084 1819 3084 
Q 2600 3084 3056 2656 
Q 3513 2228 3513 1497 
Q 3513 744 3044 326 
Q 2575 -91 1722 -91 
Q 1428 -91 1123 -41 
Q 819 9 494 109 
L 494 744 
Q 775 591 1075 516 
Q 1375 441 1709 441 
Q 2250 441 2565 725 
Q 2881 1009 2881 1497 
Q 2881 1984 2565 2268 
Q 2250 2553 1709 2553 
Q 1456 2553 1204 2497 
Q 953 2441 691 2322 
L 691 4666 
z
" transform="scale(0.015625)"/>
       </defs>
       <use xlink:href="#DejaVuSans-2212"/>
       <use xlink:href="#DejaVuSans-30" x="83.789062"/>
       <use xlink:href="#DejaVuSans-2e" x="147.412109"/>
       <use xlink:href="#DejaVuSans-35" x="179.199219"/>
      </g>
     </g>
    </g>
    <g id="ytick_2">
     <g id="line2d_9">
      <g>
       <use xlink:href="#mf413d230fc" x="44.845313" y="53.760937" style="stroke: #000000; stroke-width: 0.8"/>
      </g>
     </g>
     <g id="text_9">
      <!-- 0.0 -->
      <g transform="translate(21.942188 57.560156)scale(0.1 -0.1)">
       <use xlink:href="#DejaVuSans-30"/>
       <use xlink:href="#DejaVuSans-2e" x="63.623047"/>
       <use xlink:href="#DejaVuSans-30" x="95.410156"/>
      </g>
     </g>
    </g>
    <g id="ytick_3">
     <g id="line2d_10">
      <g>
       <use xlink:href="#mf413d230fc" x="44.845313" y="20.290506" style="stroke: #000000; stroke-width: 0.8"/>
      </g>
     </g>
     <g id="text_10">
      <!-- 0.5 -->
      <g transform="translate(21.942188 24.089725)scale(0.1 -0.1)">
       <use xlink:href="#DejaVuSans-30"/>
       <use xlink:href="#DejaVuSans-2e" x="63.623047"/>
       <use xlink:href="#DejaVuSans-35" x="95.410156"/>
      </g>
     </g>
    </g>
   </g>
   <g id="line2d_11">
    <path d="M 56.879616 54.000692 
L 60.904467 61.84469 
L 63.319378 66.162706 
L 65.734288 69.967094 
L 67.344229 72.13785 
L 68.954169 73.967131 
L 70.564109 75.41928 
L 72.17405 76.465018 
L 73.78399 77.081953 
L 75.39393 77.25497 
L 76.1989 77.172348 
L 77.808841 76.667731 
L 79.418781 75.714781 
L 81.028721 74.325236 
L 82.638662 72.518373 
L 84.248602 70.320729 
L 85.858542 67.765691 
L 88.273453 63.351486 
L 90.688363 58.381228 
L 93.908244 51.20388 
L 99.543035 38.471913 
L 101.957946 33.486124 
L 104.372856 29.069904 
L 105.982797 26.530795 
L 107.592737 24.37104 
L 109.202677 22.631795 
L 110.812618 21.347874 
L 112.422558 20.547145 
L 113.227528 20.334661 
L 114.032498 20.250031 
L 114.837468 20.294582 
L 115.642439 20.469137 
L 116.447409 20.774008 
L 117.252379 21.208992 
L 118.862319 22.465922 
L 120.47226 24.228051 
L 122.0822 26.475432 
L 123.69214 29.180308 
L 125.302081 32.307496 
L 126.912021 35.814888 
L 129.326931 41.681405 
L 132.546812 50.337649 
L 141.401484 75.061839 
L 143.816394 80.980552 
L 145.426335 84.517717 
L 147.036275 87.663104 
L 148.646215 90.367241 
L 150.256156 92.586976 
L 151.866096 94.286156 
L 153.476036 95.436209 
L 154.281007 95.798575 
L 155.085977 96.01661 
L 155.890947 96.089062 
L 156.695917 96.015219 
L 157.500887 95.794906 
L 158.305857 95.428496 
L 159.110828 94.916904 
L 160.720768 93.464528 
L 162.330708 91.455803 
L 163.940649 88.917055 
L 165.550589 85.882534 
L 167.160529 82.393916 
L 169.57544 76.417296 
L 171.99035 69.717925 
L 175.210231 60.031672 
L 182.454962 37.80395 
L 184.869873 31.104579 
L 187.284783 25.127959 
L 188.894724 21.639341 
L 190.504664 18.60482 
L 192.114604 16.066072 
L 193.724545 14.057347 
L 195.334485 12.604971 
L 196.139455 12.093379 
L 196.944425 11.726969 
L 197.749395 11.506656 
L 198.554366 11.432812 
L 199.359336 11.505265 
L 200.164306 11.7233 
L 200.969276 12.085666 
L 201.774246 12.590575 
L 203.384187 14.01827 
L 204.994127 15.981785 
L 206.604067 18.448693 
L 208.214008 21.379261 
L 209.823948 24.727086 
L 212.238858 30.415265 
L 214.653769 36.726048 
L 218.67862 48.035239 
L 223.508441 61.606389 
L 225.923351 67.867803 
L 228.338262 73.505323 
L 229.948202 76.828286 
L 231.558142 79.749161 
L 233.168083 82.229234 
L 234.778023 84.236978 
L 236.387963 85.748501 
L 237.997904 86.747867 
L 238.802874 87.052738 
L 239.607844 87.227293 
L 240.412814 87.271844 
L 241.217784 87.187214 
L 242.022755 86.97473 
L 242.827725 86.63622 
L 244.437665 85.590867 
L 246.047605 84.075354 
L 247.657546 82.12109 
L 249.267486 79.766143 
L 250.877426 77.054586 
L 253.292337 72.427758 
L 255.707247 67.294855 
L 260.537068 56.317995 
L 264.561919 47.432848 
L 266.97683 42.628897 
L 269.39174 38.436331 
L 271.001681 36.055408 
L 272.611621 34.049398 
L 274.221561 32.448323 
L 275.831502 31.275132 
L 277.441442 30.545361 
L 279.051382 30.266905 
L 279.856352 30.297272 
L 281.466293 30.69367 
L 283.076233 31.527358 
L 284.686173 32.779543 
L 286.296114 34.424329 
L 287.906054 36.42918 
L 289.515994 38.755474 
L 291.930905 42.749976 
L 294.345815 47.20003 
L 297.565696 53.521183 
L 297.565696 53.521183 
" clip-path="url(#p9d4e4d36ab)" style="fill: none; stroke: #5765ff; stroke-linecap: square"/>
   </g>
   <g id="line2d_12">
    <path d="M 56.879616 53.743812 
L 65.734288 52.591215 
L 70.564109 52.177312 
L 74.58896 52.023999 
L 78.613811 52.081194 
L 82.638662 52.369844 
L 86.663513 52.896832 
L 90.688363 53.654189 
L 94.713214 54.619071 
L 99.543035 55.997893 
L 106.787767 58.328106 
L 114.837468 60.869489 
L 119.667289 62.139296 
L 123.69214 62.942509 
L 126.912021 63.372672 
L 130.131902 63.584234 
L 133.351782 63.555305 
L 136.571663 63.270192 
L 139.791544 62.720102 
L 143.011424 61.903657 
L 146.231305 60.827202 
L 149.451186 59.504885 
L 152.671066 57.958519 
L 156.695917 55.755482 
L 161.525738 52.811899 
L 177.625141 42.630939 
L 180.845022 40.920073 
L 184.064903 39.437839 
L 187.284783 38.229374 
L 189.699694 37.526684 
L 192.114604 37.014515 
L 194.529515 36.704622 
L 196.944425 36.606113 
L 199.359336 36.725274 
L 201.774246 37.065427 
L 204.189157 37.626826 
L 206.604067 38.406605 
L 209.018978 39.398772 
L 211.433888 40.594246 
L 214.653769 42.483156 
L 217.87365 44.675157 
L 221.09353 47.125425 
L 225.118381 50.471427 
L 230.753172 55.475342 
L 238.802874 62.632098 
L 242.827725 65.924764 
L 246.047605 68.306247 
L 249.267486 70.399182 
L 251.682397 71.747646 
L 254.097307 72.884671 
L 256.512218 73.793531 
L 258.927128 74.460445 
L 261.342039 74.874793 
L 263.756949 75.029286 
L 266.17186 74.920086 
L 268.58677 74.546877 
L 271.001681 73.912893 
L 273.416591 73.024889 
L 275.831502 71.89306 
L 278.246412 70.530919 
L 280.661323 68.955119 
L 283.881203 66.555915 
L 287.101084 63.865593 
L 291.125935 60.18636 
L 296.760726 54.681591 
L 297.565696 53.880816 
L 297.565696 53.880816 
" clip-path="url(#p9d4e4d36ab)" style="fill: none; stroke: #bdc2ff; stroke-linecap: square"/>
   </g>
   <g id="line2d_13">
    <path d="M 56.879616 53.760074 
L 58.489557 53.5841 
L 60.099497 53.114609 
L 61.709437 52.385939 
L 64.124348 50.928048 
L 69.759139 47.149711 
L 71.369079 46.336654 
L 72.97902 45.769013 
L 74.58896 45.491541 
L 76.1989 45.527932 
L 77.808841 45.878717 
L 79.418781 46.520756 
L 81.028721 47.408362 
L 83.443632 49.052482 
L 87.468483 51.901744 
L 89.078423 52.805113 
L 90.688363 53.441873 
L 92.298304 53.742331 
L 93.908244 53.656947 
L 95.518184 53.160313 
L 97.128125 52.253604 
L 98.738065 50.965317 
L 100.348005 49.350209 
L 102.762916 46.49113 
L 107.592737 40.508721 
L 109.202677 38.856145 
L 110.812618 37.550342 
L 112.422558 36.67264 
L 113.227528 36.41313 
L 114.032498 36.279717 
L 114.837468 36.274929 
L 115.642439 36.399316 
L 116.447409 36.651407 
L 118.057349 37.522748 
L 119.667289 38.837527 
L 121.27723 40.51512 
L 123.69214 43.475612 
L 126.912021 47.56971 
L 128.521961 49.369078 
L 130.131902 50.82857 
L 131.741842 51.836954 
L 132.546812 52.143811 
L 133.351782 52.307728 
L 134.156752 52.322719 
L 134.961723 52.184982 
L 135.766693 51.892981 
L 136.571663 51.447492 
L 137.376633 50.851618 
L 138.986573 49.232587 
L 140.596514 47.105503 
L 142.206454 44.572172 
L 144.621365 40.297151 
L 147.841245 34.514705 
L 149.451186 31.946798 
L 151.061126 29.792755 
L 152.671066 28.176887 
L 153.476036 27.601864 
L 154.281007 27.194502 
L 155.085977 26.961186 
L 155.890947 26.905839 
L 156.695917 27.029844 
L 157.500887 27.332007 
L 158.305857 27.808558 
L 159.110828 28.453189 
L 160.720768 30.209257 
L 162.330708 32.502764 
L 163.940649 35.204177 
L 170.38041 46.815325 
L 171.99035 49.063117 
L 173.600291 50.746634 
L 174.405261 51.34239 
L 175.210231 51.760278 
L 176.015201 51.992984 
L 176.820171 52.035807 
L 177.625141 51.886731 
L 178.430111 51.546461 
L 179.235082 51.018422 
L 180.040052 50.308713 
L 181.649992 48.381517 
L 183.259932 45.863113 
L 184.869873 42.885559 
L 188.089753 36.204273 
L 190.504664 31.266581 
L 192.114604 28.345287 
L 193.724545 25.907046 
L 195.334485 24.082971 
L 196.139455 23.433152 
L 196.944425 22.970439 
L 197.749395 22.700876 
L 198.554366 22.627867 
L 199.359336 22.75214 
L 200.164306 23.07175 
L 200.969276 23.582122 
L 201.774246 24.276125 
L 203.384187 26.174468 
L 204.994127 28.663894 
L 206.604067 31.611385 
L 209.823948 38.246272 
L 212.238858 43.200173 
L 213.848799 46.184069 
L 215.458739 48.747113 
L 217.068679 50.776713 
L 217.87365 51.565126 
L 218.67862 52.193028 
L 219.48359 52.656162 
L 220.28856 52.952659 
L 221.09353 53.083034 
L 221.8985 53.050135 
L 222.703471 52.859079 
L 223.508441 52.517131 
L 224.313411 52.033572 
L 225.923351 50.687776 
L 227.533292 48.929197 
L 229.948202 45.797518 
L 233.973053 40.412475 
L 235.582993 38.581445 
L 237.192934 37.0955 
L 238.802874 36.028249 
L 240.412814 35.423845 
L 241.217784 35.300518 
L 242.022755 35.295384 
L 243.632695 35.625303 
L 245.242635 36.3677 
L 246.852576 37.452385 
L 249.267486 39.522969 
L 254.097307 43.979152 
L 255.707247 45.194231 
L 257.317188 46.142857 
L 258.927128 46.776793 
L 260.537068 47.072645 
L 262.147009 47.032815 
L 263.756949 46.684695 
L 265.366889 46.078163 
L 267.7818 44.83723 
L 271.806651 42.598776 
L 273.416591 41.899869 
L 275.026531 41.428496 
L 276.636472 41.240722 
L 278.246412 41.371996 
L 279.856352 41.83466 
L 281.466293 42.617044 
L 283.076233 43.684226 
L 285.491144 45.692032 
L 291.930905 51.471587 
L 293.540845 52.533734 
L 295.150786 53.291647 
L 296.760726 53.697698 
L 297.565696 53.759864 
L 297.565696 53.759864 
" clip-path="url(#p9d4e4d36ab)" style="fill: none; stroke: #0010bd; stroke-linecap: square"/>
   </g>
   <g id="patch_3">
    <path d="M 44.845313 100.321875 
L 44.845313 7.2 
" style="fill: none; stroke: #000000; stroke-width: 0.8; stroke-linejoin: miter; stroke-linecap: square"/>
   </g>
   <g id="patch_4">
    <path d="M 309.6 100.321875 
L 309.6 7.2 
" style="fill: none; stroke: #000000; stroke-width: 0.8; stroke-linejoin: miter; stroke-linecap: square"/>
   </g>
   <g id="patch_5">
    <path d="M 44.845313 100.321875 
L 309.6 100.321875 
" style="fill: none; stroke: #000000; stroke-width: 0.8; stroke-linejoin: miter; stroke-linecap: square"/>
   </g>
   <g id="patch_6">
    <path d="M 44.845313 7.2 
L 309.6 7.2 
" style="fill: none; stroke: #000000; stroke-width: 0.8; stroke-linejoin: miter; stroke-linecap: square"/>
   </g>
  </g>
  <g id="axes_2">
   <g id="patch_7">
    <path d="M 44.845313 220.921875 
L 309.6 220.921875 
L 309.6 127.8 
L 44.845313 127.8 
z
" style="fill: #ffffff"/>
   </g>
   <g id="patch_8">
    <path d="M 56.879616 172.364869 
L 66.136773 172.364869 
L 66.136773 172.364869 
L 56.879616 172.364869 
z
" clip-path="url(#pddef4456e3)" style="fill: #ff5757"/>
   </g>
   <g id="patch_9">
    <path d="M 68.451063 172.364869 
L 77.70822 172.364869 
L 77.70822 173.470384 
L 68.451063 173.470384 
z
" clip-path="url(#pddef4456e3)" style="fill: #ff5757"/>
   </g>
   <g id="patch_10">
    <path d="M 80.022509 172.364869 
L 89.279666 172.364869 
L 89.279666 172.364869 
L 80.022509 172.364869 
z
" clip-path="url(#pddef4456e3)" style="fill: #ff5757"/>
   </g>
   <g id="patch_11">
    <path d="M 91.593955 172.364869 
L 100.851112 172.364869 
L 100.851112 170.18734 
L 91.593955 170.18734 
z
" clip-path="url(#pddef4456e3)" style="fill: #ff5757"/>
   </g>
   <g id="patch_12">
    <path d="M 103.165401 172.364869 
L 112.422558 172.364869 
L 112.422558 172.364869 
L 103.165401 172.364869 
z
" clip-path="url(#pddef4456e3)" style="fill: #ff5757"/>
   </g>
   <g id="patch_13">
    <path d="M 114.736847 172.364869 
L 123.994004 172.364869 
L 123.994004 180.349142 
L 114.736847 180.349142 
z
" clip-path="url(#pddef4456e3)" style="fill: #ff5757"/>
   </g>
   <g id="patch_14">
    <path d="M 126.308293 172.364869 
L 135.56545 172.364869 
L 135.56545 186.474244 
L 126.308293 186.474244 
z
" clip-path="url(#pddef4456e3)" style="fill: #ff5757"/>
   </g>
   <g id="patch_15">
    <path d="M 137.879739 172.364869 
L 147.136896 172.364869 
L 147.136896 182.630363 
L 137.879739 182.630363 
z
" clip-path="url(#pddef4456e3)" style="fill: #ff5757"/>
   </g>
   <g id="patch_16">
    <path d="M 149.451186 172.364869 
L 158.708342 172.364869 
L 158.708342 172.364869 
L 149.451186 172.364869 
z
" clip-path="url(#pddef4456e3)" style="fill: #ff5757"/>
   </g>
   <g id="patch_17">
    <path d="M 161.022632 172.364869 
L 170.279789 172.364869 
L 170.279789 167.574305 
L 161.022632 167.574305 
z
" clip-path="url(#pddef4456e3)" style="fill: #ff5757"/>
   </g>
   <g id="patch_18">
    <path d="M 172.594078 172.364869 
L 181.851235 172.364869 
L 181.851235 172.364869 
L 172.594078 172.364869 
z
" clip-path="url(#pddef4456e3)" style="fill: #ff5757"/>
   </g>
   <g id="patch_19">
    <path d="M 184.165524 172.364869 
L 193.422681 172.364869 
L 193.422681 177.155433 
L 184.165524 177.155433 
z
" clip-path="url(#pddef4456e3)" style="fill: #ff5757"/>
   </g>
   <g id="patch_20">
    <path d="M 195.73697 172.364869 
L 204.994127 172.364869 
L 204.994127 172.364869 
L 195.73697 172.364869 
z
" clip-path="url(#pddef4456e3)" style="fill: #ff5757"/>
   </g>
   <g id="patch_21">
    <path d="M 207.308416 172.364869 
L 216.565573 172.364869 
L 216.565573 162.099375 
L 207.308416 162.099375 
z
" clip-path="url(#pddef4456e3)" style="fill: #ff5757"/>
   </g>
   <g id="patch_22">
    <path d="M 218.879862 172.364869 
L 228.137019 172.364869 
L 228.137019 158.255494 
L 218.879862 158.255494 
z
" clip-path="url(#pddef4456e3)" style="fill: #ff5757"/>
   </g>
   <g id="patch_23">
    <path d="M 230.451308 172.364869 
L 239.708465 172.364869 
L 239.708465 164.380596 
L 230.451308 164.380596 
z
" clip-path="url(#pddef4456e3)" style="fill: #ff5757"/>
   </g>
   <g id="patch_24">
    <path d="M 242.022755 172.364869 
L 251.279911 172.364869 
L 251.279911 172.364869 
L 242.022755 172.364869 
z
" clip-path="url(#pddef4456e3)" style="fill: #ff5757"/>
   </g>
   <g id="patch_25">
    <path d="M 253.594201 172.364869 
L 262.851358 172.364869 
L 262.851358 174.542398 
L 253.594201 174.542398 
z
" clip-path="url(#pddef4456e3)" style="fill: #ff5757"/>
   </g>
   <g id="patch_26">
    <path d="M 265.165647 172.364869 
L 274.422804 172.364869 
L 274.422804 172.364869 
L 265.165647 172.364869 
z
" clip-path="url(#pddef4456e3)" style="fill: #ff5757"/>
   </g>
   <g id="patch_27">
    <path d="M 276.737093 172.364869 
L 285.99425 172.364869 
L 285.99425 171.259355 
L 276.737093 171.259355 
z
" clip-path="url(#pddef4456e3)" style="fill: #ff5757"/>
   </g>
   <g id="patch_28">
    <path d="M 288.308539 172.364869 
L 297.565696 172.364869 
L 297.565696 172.364869 
L 288.308539 172.364869 
z
" clip-path="url(#pddef4456e3)" style="fill: #ff5757"/>
   </g>
   <g id="patch_29">
    <path d="M 56.879616 172.364869 
L 66.136773 172.364869 
L 66.136773 172.957109 
L 56.879616 172.957109 
z
" clip-path="url(#pddef4456e3)" style="fill: #ffbdbd"/>
   </g>
   <g id="patch_30">
    <path d="M 68.451063 172.364869 
L 77.70822 172.364869 
L 77.70822 178.4452 
L 68.451063 178.4452 
z
" clip-path="url(#pddef4456e3)" style="fill: #ffbdbd"/>
   </g>
   <g id="patch_31">
    <path d="M 80.022509 172.364869 
L 89.279666 172.364869 
L 89.279666 171.384981 
L 80.022509 171.384981 
z
" clip-path="url(#pddef4456e3)" style="fill: #ffbdbd"/>
   </g>
   <g id="patch_32">
    <path d="M 91.593955 172.364869 
L 100.851112 172.364869 
L 100.851112 149.668317 
L 91.593955 149.668317 
z
" clip-path="url(#pddef4456e3)" style="fill: #ffbdbd"/>
   </g>
   <g id="patch_33">
    <path d="M 103.165401 172.364869 
L 112.422558 172.364869 
L 112.422558 132.032812 
L 103.165401 132.032812 
z
" clip-path="url(#pddef4456e3)" style="fill: #ffbdbd"/>
   </g>
   <g id="patch_34">
    <path d="M 114.736847 172.364869 
L 123.994004 172.364869 
L 123.994004 134.983955 
L 114.736847 134.983955 
z
" clip-path="url(#pddef4456e3)" style="fill: #ffbdbd"/>
   </g>
   <g id="patch_35">
    <path d="M 126.308293 172.364869 
L 135.56545 172.364869 
L 135.56545 150.556374 
L 126.308293 150.556374 
z
" clip-path="url(#pddef4456e3)" style="fill: #ffbdbd"/>
   </g>
   <g id="patch_36">
    <path d="M 137.879739 172.364869 
L 147.136896 172.364869 
L 147.136896 159.96641 
L 137.879739 159.96641 
z
" clip-path="url(#pddef4456e3)" style="fill: #ffbdbd"/>
   </g>
   <g id="patch_37">
    <path d="M 149.451186 172.364869 
L 158.708342 172.364869 
L 158.708342 161.586101 
L 149.451186 161.586101 
z
" clip-path="url(#pddef4456e3)" style="fill: #ffbdbd"/>
   </g>
   <g id="patch_38">
    <path d="M 161.022632 172.364869 
L 170.279789 172.364869 
L 170.279789 167.916489 
L 161.022632 167.916489 
z
" clip-path="url(#pddef4456e3)" style="fill: #ffbdbd"/>
   </g>
   <g id="patch_39">
    <path d="M 172.594078 172.364869 
L 181.851235 172.364869 
L 181.851235 178.353074 
L 172.594078 178.353074 
z
" clip-path="url(#pddef4456e3)" style="fill: #ffbdbd"/>
   </g>
   <g id="patch_40">
    <path d="M 184.165524 172.364869 
L 193.422681 172.364869 
L 193.422681 176.81325 
L 184.165524 176.81325 
z
" clip-path="url(#pddef4456e3)" style="fill: #ffbdbd"/>
   </g>
   <g id="patch_41">
    <path d="M 195.73697 172.364869 
L 204.994127 172.364869 
L 204.994127 161.586101 
L 195.73697 161.586101 
z
" clip-path="url(#pddef4456e3)" style="fill: #ffbdbd"/>
   </g>
   <g id="patch_42">
    <path d="M 207.308416 172.364869 
L 216.565573 172.364869 
L 216.565573 156.544579 
L 207.308416 156.544579 
z
" clip-path="url(#pddef4456e3)" style="fill: #ffbdbd"/>
   </g>
   <g id="patch_43">
    <path d="M 218.879862 172.364869 
L 228.137019 172.364869 
L 228.137019 178.775124 
L 218.879862 178.775124 
z
" clip-path="url(#pddef4456e3)" style="fill: #ffbdbd"/>
   </g>
   <g id="patch_44">
    <path d="M 230.451308 172.364869 
L 239.708465 172.364869 
L 239.708465 209.745784 
L 230.451308 209.745784 
z
" clip-path="url(#pddef4456e3)" style="fill: #ffbdbd"/>
   </g>
   <g id="patch_45">
    <path d="M 242.022755 172.364869 
L 251.279911 172.364869 
L 251.279911 216.689062 
L 242.022755 216.689062 
z
" clip-path="url(#pddef4456e3)" style="fill: #ffbdbd"/>
   </g>
   <g id="patch_46">
    <path d="M 253.594201 172.364869 
L 262.851358 172.364869 
L 262.851358 195.061421 
L 253.594201 195.061421 
z
" clip-path="url(#pddef4456e3)" style="fill: #ffbdbd"/>
   </g>
   <g id="patch_47">
    <path d="M 265.165647 172.364869 
L 274.422804 172.364869 
L 274.422804 171.384981 
L 265.165647 171.384981 
z
" clip-path="url(#pddef4456e3)" style="fill: #ffbdbd"/>
   </g>
   <g id="patch_48">
    <path d="M 276.737093 172.364869 
L 285.99425 172.364869 
L 285.99425 166.284538 
L 276.737093 166.284538 
z
" clip-path="url(#pddef4456e3)" style="fill: #ffbdbd"/>
   </g>
   <g id="patch_49">
    <path d="M 288.308539 172.364869 
L 297.565696 172.364869 
L 297.565696 172.957109 
L 288.308539 172.957109 
z
" clip-path="url(#pddef4456e3)" style="fill: #ffbdbd"/>
   </g>
   <g id="patch_50">
    <path d="M 56.879616 172.364869 
L 66.136773 172.364869 
L 66.136773 172.361281 
L 56.879616 172.361281 
z
" clip-path="url(#pddef4456e3)" style="fill: #bd0000"/>
   </g>
   <g id="patch_51">
    <path d="M 68.451063 172.364869 
L 77.70822 172.364869 
L 77.70822 171.974163 
L 68.451063 171.974163 
z
" clip-path="url(#pddef4456e3)" style="fill: #bd0000"/>
   </g>
   <g id="patch_52">
    <path d="M 80.022509 172.364869 
L 89.279666 172.364869 
L 89.279666 172.355047 
L 80.022509 172.355047 
z
" clip-path="url(#pddef4456e3)" style="fill: #bd0000"/>
   </g>
   <g id="patch_53">
    <path d="M 91.593955 172.364869 
L 100.851112 172.364869 
L 100.851112 167.046596 
L 91.593955 167.046596 
z
" clip-path="url(#pddef4456e3)" style="fill: #bd0000"/>
   </g>
   <g id="patch_54">
    <path d="M 103.165401 172.364869 
L 112.422558 172.364869 
L 112.422558 155.72414 
L 103.165401 155.72414 
z
" clip-path="url(#pddef4456e3)" style="fill: #bd0000"/>
   </g>
   <g id="patch_55">
    <path d="M 114.736847 172.364869 
L 123.994004 172.364869 
L 123.994004 157.418145 
L 114.736847 157.418145 
z
" clip-path="url(#pddef4456e3)" style="fill: #bd0000"/>
   </g>
   <g id="patch_56">
    <path d="M 126.308293 172.364869 
L 135.56545 172.364869 
L 135.56545 165.462906 
L 126.308293 165.462906 
z
" clip-path="url(#pddef4456e3)" style="fill: #bd0000"/>
   </g>
   <g id="patch_57">
    <path d="M 137.879739 172.364869 
L 147.136896 172.364869 
L 147.136896 169.714279 
L 137.879739 169.714279 
z
" clip-path="url(#pddef4456e3)" style="fill: #bd0000"/>
   </g>
   <g id="patch_58">
    <path d="M 149.451186 172.364869 
L 158.708342 172.364869 
L 158.708342 171.17634 
L 149.451186 171.17634 
z
" clip-path="url(#pddef4456e3)" style="fill: #bd0000"/>
   </g>
   <g id="patch_59">
    <path d="M 161.022632 172.364869 
L 170.279789 172.364869 
L 170.279789 171.927668 
L 161.022632 171.927668 
z
" clip-path="url(#pddef4456e3)" style="fill: #bd0000"/>
   </g>
   <g id="patch_60">
    <path d="M 172.594078 172.364869 
L 181.851235 172.364869 
L 181.851235 171.998039 
L 172.594078 171.998039 
z
" clip-path="url(#pddef4456e3)" style="fill: #bd0000"/>
   </g>
   <g id="patch_61">
    <path d="M 184.165524 172.364869 
L 193.422681 172.364869 
L 193.422681 171.927668 
L 184.165524 171.927668 
z
" clip-path="url(#pddef4456e3)" style="fill: #bd0000"/>
   </g>
   <g id="patch_62">
    <path d="M 195.73697 172.364869 
L 204.994127 172.364869 
L 204.994127 171.17634 
L 195.73697 171.17634 
z
" clip-path="url(#pddef4456e3)" style="fill: #bd0000"/>
   </g>
   <g id="patch_63">
    <path d="M 207.308416 172.364869 
L 216.565573 172.364869 
L 216.565573 168.726481 
L 207.308416 168.726481 
z
" clip-path="url(#pddef4456e3)" style="fill: #bd0000"/>
   </g>
   <g id="patch_64">
    <path d="M 218.879862 172.364869 
L 228.137019 172.364869 
L 228.137019 169.907996 
L 218.879862 169.907996 
z
" clip-path="url(#pddef4456e3)" style="fill: #bd0000"/>
   </g>
   <g id="patch_65">
    <path d="M 230.451308 172.364869 
L 239.708465 172.364869 
L 239.708465 157.418145 
L 230.451308 157.418145 
z
" clip-path="url(#pddef4456e3)" style="fill: #bd0000"/>
   </g>
   <g id="patch_66">
    <path d="M 242.022755 172.364869 
L 251.279911 172.364869 
L 251.279911 152.266849 
L 242.022755 152.266849 
z
" clip-path="url(#pddef4456e3)" style="fill: #bd0000"/>
   </g>
   <g id="patch_67">
    <path d="M 253.594201 172.364869 
L 262.851358 172.364869 
L 262.851358 167.046596 
L 253.594201 167.046596 
z
" clip-path="url(#pddef4456e3)" style="fill: #bd0000"/>
   </g>
   <g id="patch_68">
    <path d="M 265.165647 172.364869 
L 274.422804 172.364869 
L 274.422804 172.355047 
L 265.165647 172.355047 
z
" clip-path="url(#pddef4456e3)" style="fill: #bd0000"/>
   </g>
   <g id="patch_69">
    <path d="M 276.737093 172.364869 
L 285.99425 172.364869 
L 285.99425 171.974163 
L 276.737093 171.974163 
z
" clip-path="url(#pddef4456e3)" style="fill: #bd0000"/>
   </g>
   <g id="patch_70">
    <path d="M 288.308539 172.364869 
L 297.565696 172.364869 
L 297.565696 172.361281 
L 288.308539 172.361281 
z
" clip-path="url(#pddef4456e3)" style="fill: #bd0000"/>
   </g>
   <g id="matplotlib.axis_3">
    <g id="xtick_8">
     <g id="line2d_14">
      <g>
       <use xlink:href="#m1291955b61" x="84.651087" y="220.921875" style="stroke: #000000; stroke-width: 0.8"/>
      </g>
     </g>
     <g id="text_11">
      <!-- −4 -->
      <g transform="translate(77.279993 235.520313)scale(0.1 -0.1)">
       <defs>
        <path id="DejaVuSans-34" d="M 2419 4116 
L 825 1625 
L 2419 1625 
L 2419 4116 
z
M 2253 4666 
L 3047 4666 
L 3047 1625 
L 3713 1625 
L 3713 1100 
L 3047 1100 
L 3047 0 
L 2419 0 
L 2419 1100 
L 313 1100 
L 313 1709 
L 2253 4666 
z
" transform="scale(0.015625)"/>
       </defs>
       <use xlink:href="#DejaVuSans-2212"/>
       <use xlink:href="#DejaVuSans-34" x="83.789062"/>
      </g>
     </g>
    </g>
    <g id="xtick_9">
     <g id="line2d_15">
      <g>
       <use xlink:href="#m1291955b61" x="130.936872" y="220.921875" style="stroke: #000000; stroke-width: 0.8"/>
      </g>
     </g>
     <g id="text_12">
      <!-- −2 -->
      <g transform="translate(123.565778 235.520313)scale(0.1 -0.1)">
       <use xlink:href="#DejaVuSans-2212"/>
       <use xlink:href="#DejaVuSans-32" x="83.789062"/>
      </g>
     </g>
    </g>
    <g id="xtick_10">
     <g id="line2d_16">
      <g>
       <use xlink:href="#m1291955b61" x="177.222656" y="220.921875" style="stroke: #000000; stroke-width: 0.8"/>
      </g>
     </g>
     <g id="text_13">
      <!-- 0 -->
      <g transform="translate(174.041406 235.520313)scale(0.1 -0.1)">
       <use xlink:href="#DejaVuSans-30"/>
      </g>
     </g>
    </g>
    <g id="xtick_11">
     <g id="line2d_17">
      <g>
       <use xlink:href="#m1291955b61" x="223.508441" y="220.921875" style="stroke: #000000; stroke-width: 0.8"/>
      </g>
     </g>
     <g id="text_14">
      <!-- 2 -->
      <g transform="translate(220.327191 235.520313)scale(0.1 -0.1)">
       <use xlink:href="#DejaVuSans-32"/>
      </g>
     </g>
    </g>
    <g id="xtick_12">
     <g id="line2d_18">
      <g>
       <use xlink:href="#m1291955b61" x="269.794225" y="220.921875" style="stroke: #000000; stroke-width: 0.8"/>
      </g>
     </g>
     <g id="text_15">
      <!-- 4 -->
      <g transform="translate(266.612975 235.520313)scale(0.1 -0.1)">
       <use xlink:href="#DejaVuSans-34"/>
      </g>
     </g>
    </g>
   </g>
   <g id="matplotlib.axis_4">
    <g id="ytick_4">
     <g id="line2d_19">
      <g>
       <use xlink:href="#mf413d230fc" x="44.845313" y="196.803024" style="stroke: #000000; stroke-width: 0.8"/>
      </g>
     </g>
     <g id="text_16">
      <!-- −0.25 -->
      <g transform="translate(7.2 200.602242)scale(0.1 -0.1)">
       <use xlink:href="#DejaVuSans-2212"/>
       <use xlink:href="#DejaVuSans-30" x="83.789062"/>
       <use xlink:href="#DejaVuSans-2e" x="147.412109"/>
       <use xlink:href="#DejaVuSans-32" x="179.199219"/>
       <use xlink:href="#DejaVuSans-35" x="242.822266"/>
      </g>
     </g>
    </g>
    <g id="ytick_5">
     <g id="line2d_20">
      <g>
       <use xlink:href="#mf413d230fc" x="44.845313" y="172.364869" style="stroke: #000000; stroke-width: 0.8"/>
      </g>
     </g>
     <g id="text_17">
      <!-- 0.00 -->
      <g transform="translate(15.579688 176.164088)scale(0.1 -0.1)">
       <use xlink:href="#DejaVuSans-30"/>
       <use xlink:href="#DejaVuSans-2e" x="63.623047"/>
       <use xlink:href="#DejaVuSans-30" x="95.410156"/>
       <use xlink:href="#DejaVuSans-30" x="159.033203"/>
      </g>
     </g>
    </g>
    <g id="ytick_6">
     <g id="line2d_21">
      <g>
       <use xlink:href="#mf413d230fc" x="44.845313" y="147.926715" style="stroke: #000000; stroke-width: 0.8"/>
      </g>
     </g>
     <g id="text_18">
      <!-- 0.25 -->
      <g transform="translate(15.579688 151.725934)scale(0.1 -0.1)">
       <use xlink:href="#DejaVuSans-30"/>
       <use xlink:href="#DejaVuSans-2e" x="63.623047"/>
       <use xlink:href="#DejaVuSans-32" x="95.410156"/>
       <use xlink:href="#DejaVuSans-35" x="159.033203"/>
      </g>
     </g>
    </g>
   </g>
   <g id="patch_71">
    <path d="M 44.845313 220.921875 
L 44.845313 127.8 
" style="fill: none; stroke: #000000; stroke-width: 0.8; stroke-linejoin: miter; stroke-linecap: square"/>
   </g>
   <g id="patch_72">
    <path d="M 309.6 220.921875 
L 309.6 127.8 
" style="fill: none; stroke: #000000; stroke-width: 0.8; stroke-linejoin: miter; stroke-linecap: square"/>
   </g>
   <g id="patch_73">
    <path d="M 44.845313 220.921875 
L 309.6 220.921875 
" style="fill: none; stroke: #000000; stroke-width: 0.8; stroke-linejoin: miter; stroke-linecap: square"/>
   </g>
   <g id="patch_74">
    <path d="M 44.845313 127.8 
L 309.6 127.8 
" style="fill: none; stroke: #000000; stroke-width: 0.8; stroke-linejoin: miter; stroke-linecap: square"/>
   </g>
  </g>
 </g>
 <defs>
  <clipPath id="p9d4e4d36ab">
   <rect x="44.845313" y="7.2" width="264.754687" height="93.121875"/>
  </clipPath>
  <clipPath id="pddef4456e3">
   <rect x="44.845313" y="127.8" width="264.754687" height="93.121875"/>
  </clipPath>
 </defs>
</svg>
