<?xml version="1.0" encoding="utf-8" standalone="no"?>
<!DOCTYPE svg PUBLIC "-//W3C//DTD SVG 1.1//EN"
  "http://www.w3.org/Graphics/SVG/1.1/DTD/svg11.dtd">
<svg xmlns:xlink="http://www.w3.org/1999/xlink" width="280.8pt" height="172.8pt" viewBox="0 0 280.8 172.8" xmlns="http://www.w3.org/2000/svg" version="1.1">
 <metadata>
  <rdf:RDF xmlns:dc="http://purl.org/dc/elements/1.1/" xmlns:cc="http://creativecommons.org/ns#" xmlns:rdf="http://www.w3.org/1999/02/22-rdf-syntax-ns#">
   <cc:Work>
    <dc:type rdf:resource="http://purl.org/dc/dcmitype/StillImage"/>
    <dc:date>2022-06-12T16:24:18.978751</dc:date>
    <dc:format>image/svg+xml</dc:format>
    <dc:creator>
     <cc:Agent>
      <dc:title>Matplotlib v3.5.2, https://matplotlib.org/</dc:title>
     </cc:Agent>
    </dc:creator>
   </cc:Work>
  </rdf:RDF>
 </metadata>
 <defs>
  <style type="text/css">*{stroke-linejoin: round; stroke-linecap: butt}</style>
 </defs>
 <g id="figure_1">
  <g id="patch_1">
   <path d="M 0 172.8 
L 280.8 172.8 
L 280.8 0 
L 0 0 
z
" style="fill: #ffffff"/>
  </g>
  <g id="axes_1">
   <g id="patch_2">
    <path d="M 30.103125 148.921875 
L 273.6 148.921875 
L 273.6 7.2 
L 30.103125 7.2 
z
" style="fill: #ffffff"/>
   </g>
   <g id="matplotlib.axis_1">
    <g id="xtick_1">
     <g id="line2d_1">
      <defs>
       <path id="m47eb290de4" d="M 0 0 
L 0 3.5 
" style="stroke: #000000; stroke-width: 0.8"/>
      </defs>
      <g>
       <use xlink:href="#m47eb290de4" x="46.05377" y="148.921875" style="stroke: #000000; stroke-width: 0.8"/>
      </g>
     </g>
     <g id="text_1">
      <!-- −3 -->
      <g transform="translate(38.682677 163.520312)scale(0.1 -0.1)">
       <defs>
        <path id="DejaVuSans-2212" d="M 678 2272 
L 4684 2272 
L 4684 1741 
L 678 1741 
L 678 2272 
z
" transform="scale(0.015625)"/>
        <path id="DejaVuSans-33" d="M 2597 2516 
Q 3050 2419 3304 2112 
Q 3559 1806 3559 1356 
Q 3559 666 3084 287 
Q 2609 -91 1734 -91 
Q 1441 -91 1130 -33 
Q 819 25 488 141 
L 488 750 
Q 750 597 1062 519 
Q 1375 441 1716 441 
Q 2309 441 2620 675 
Q 2931 909 2931 1356 
Q 2931 1769 2642 2001 
Q 2353 2234 1838 2234 
L 1294 2234 
L 1294 2753 
L 1863 2753 
Q 2328 2753 2575 2939 
Q 2822 3125 2822 3475 
Q 2822 3834 2567 4026 
Q 2313 4219 1838 4219 
Q 1578 4219 1281 4162 
Q 984 4106 628 3988 
L 628 4550 
Q 988 4650 1302 4700 
Q 1616 4750 1894 4750 
Q 2613 4750 3031 4423 
Q 3450 4097 3450 3541 
Q 3450 3153 3228 2886 
Q 3006 2619 2597 2516 
z
" transform="scale(0.015625)"/>
       </defs>
       <use xlink:href="#DejaVuSans-2212"/>
       <use xlink:href="#DejaVuSans-33" x="83.789062"/>
      </g>
     </g>
    </g>
    <g id="xtick_2">
     <g id="line2d_2">
      <g>
       <use xlink:href="#m47eb290de4" x="81.319701" y="148.921875" style="stroke: #000000; stroke-width: 0.8"/>
      </g>
     </g>
     <g id="text_2">
      <!-- −2 -->
      <g transform="translate(73.948607 163.520312)scale(0.1 -0.1)">
       <defs>
        <path id="DejaVuSans-32" d="M 1228 531 
L 3431 531 
L 3431 0 
L 469 0 
L 469 531 
Q 828 903 1448 1529 
Q 2069 2156 2228 2338 
Q 2531 2678 2651 2914 
Q 2772 3150 2772 3378 
Q 2772 3750 2511 3984 
Q 2250 4219 1831 4219 
Q 1534 4219 1204 4116 
Q 875 4013 500 3803 
L 500 4441 
Q 881 4594 1212 4672 
Q 1544 4750 1819 4750 
Q 2544 4750 2975 4387 
Q 3406 4025 3406 3419 
Q 3406 3131 3298 2873 
Q 3191 2616 2906 2266 
Q 2828 2175 2409 1742 
Q 1991 1309 1228 531 
z
" transform="scale(0.015625)"/>
       </defs>
       <use xlink:href="#DejaVuSans-2212"/>
       <use xlink:href="#DejaVuSans-32" x="83.789062"/>
      </g>
     </g>
    </g>
    <g id="xtick_3">
     <g id="line2d_3">
      <g>
       <use xlink:href="#m47eb290de4" x="116.585632" y="148.921875" style="stroke: #000000; stroke-width: 0.8"/>
      </g>
     </g>
     <g id="text_3">
      <!-- −1 -->
      <g transform="translate(109.214538 163.520312)scale(0.1 -0.1)">
       <defs>
        <path id="DejaVuSans-31" d="M 794 531 
L 1825 531 
L 1825 4091 
L 703 3866 
L 703 4441 
L 1819 4666 
L 2450 4666 
L 2450 531 
L 3481 531 
L 3481 0 
L 794 0 
L 794 531 
z
" transform="scale(0.015625)"/>
       </defs>
       <use xlink:href="#DejaVuSans-2212"/>
       <use xlink:href="#DejaVuSans-31" x="83.789062"/>
      </g>
     </g>
    </g>
    <g id="xtick_4">
     <g id="line2d_4">
      <g>
       <use xlink:href="#m47eb290de4" x="151.851562" y="148.921875" style="stroke: #000000; stroke-width: 0.8"/>
      </g>
     </g>
     <g id="text_4">
      <!-- 0 -->
      <g transform="translate(148.670312 163.520312)scale(0.1 -0.1)">
       <defs>
        <path id="DejaVuSans-30" d="M 2034 4250 
Q 1547 4250 1301 3770 
Q 1056 3291 1056 2328 
Q 1056 1369 1301 889 
Q 1547 409 2034 409 
Q 2525 409 2770 889 
Q 3016 1369 3016 2328 
Q 3016 3291 2770 3770 
Q 2525 4250 2034 4250 
z
M 2034 4750 
Q 2819 4750 3233 4129 
Q 3647 3509 3647 2328 
Q 3647 1150 3233 529 
Q 2819 -91 2034 -91 
Q 1250 -91 836 529 
Q 422 1150 422 2328 
Q 422 3509 836 4129 
Q 1250 4750 2034 4750 
z
" transform="scale(0.015625)"/>
       </defs>
       <use xlink:href="#DejaVuSans-30"/>
      </g>
     </g>
    </g>
    <g id="xtick_5">
     <g id="line2d_5">
      <g>
       <use xlink:href="#m47eb290de4" x="187.117493" y="148.921875" style="stroke: #000000; stroke-width: 0.8"/>
      </g>
     </g>
     <g id="text_5">
      <!-- 1 -->
      <g transform="translate(183.936243 163.520312)scale(0.1 -0.1)">
       <use xlink:href="#DejaVuSans-31"/>
      </g>
     </g>
    </g>
    <g id="xtick_6">
     <g id="line2d_6">
      <g>
       <use xlink:href="#m47eb290de4" x="222.383424" y="148.921875" style="stroke: #000000; stroke-width: 0.8"/>
      </g>
     </g>
     <g id="text_6">
      <!-- 2 -->
      <g transform="translate(219.202174 163.520312)scale(0.1 -0.1)">
       <use xlink:href="#DejaVuSans-32"/>
      </g>
     </g>
    </g>
    <g id="xtick_7">
     <g id="line2d_7">
      <g>
       <use xlink:href="#m47eb290de4" x="257.649355" y="148.921875" style="stroke: #000000; stroke-width: 0.8"/>
      </g>
     </g>
     <g id="text_7">
      <!-- 3 -->
      <g transform="translate(254.468105 163.520312)scale(0.1 -0.1)">
       <use xlink:href="#DejaVuSans-33"/>
      </g>
     </g>
    </g>
   </g>
   <g id="matplotlib.axis_2">
    <g id="ytick_1">
     <g id="line2d_8">
      <defs>
       <path id="mcbeec5d9fd" d="M 0 0 
L -3.5 0 
" style="stroke: #000000; stroke-width: 0.8"/>
      </defs>
      <g>
       <use xlink:href="#mcbeec5d9fd" x="30.103125" y="142.487932" style="stroke: #000000; stroke-width: 0.8"/>
      </g>
     </g>
     <g id="text_8">
      <!-- 0.0 -->
      <g transform="translate(7.2 146.28715)scale(0.1 -0.1)">
       <defs>
        <path id="DejaVuSans-2e" d="M 684 794 
L 1344 794 
L 1344 0 
L 684 0 
L 684 794 
z
" transform="scale(0.015625)"/>
       </defs>
       <use xlink:href="#DejaVuSans-30"/>
       <use xlink:href="#DejaVuSans-2e" x="63.623047"/>
       <use xlink:href="#DejaVuSans-30" x="95.410156"/>
      </g>
     </g>
    </g>
    <g id="ytick_2">
     <g id="line2d_9">
      <g>
       <use xlink:href="#mcbeec5d9fd" x="30.103125" y="114.592493" style="stroke: #000000; stroke-width: 0.8"/>
      </g>
     </g>
     <g id="text_9">
      <!-- 0.1 -->
      <g transform="translate(7.2 118.391712)scale(0.1 -0.1)">
       <use xlink:href="#DejaVuSans-30"/>
       <use xlink:href="#DejaVuSans-2e" x="63.623047"/>
       <use xlink:href="#DejaVuSans-31" x="95.410156"/>
      </g>
     </g>
    </g>
    <g id="ytick_3">
     <g id="line2d_10">
      <g>
       <use xlink:href="#mcbeec5d9fd" x="30.103125" y="86.697055" style="stroke: #000000; stroke-width: 0.8"/>
      </g>
     </g>
     <g id="text_10">
      <!-- 0.2 -->
      <g transform="translate(7.2 90.496273)scale(0.1 -0.1)">
       <use xlink:href="#DejaVuSans-30"/>
       <use xlink:href="#DejaVuSans-2e" x="63.623047"/>
       <use xlink:href="#DejaVuSans-32" x="95.410156"/>
      </g>
     </g>
    </g>
    <g id="ytick_4">
     <g id="line2d_11">
      <g>
       <use xlink:href="#mcbeec5d9fd" x="30.103125" y="58.801616" style="stroke: #000000; stroke-width: 0.8"/>
      </g>
     </g>
     <g id="text_11">
      <!-- 0.3 -->
      <g transform="translate(7.2 62.600835)scale(0.1 -0.1)">
       <use xlink:href="#DejaVuSans-30"/>
       <use xlink:href="#DejaVuSans-2e" x="63.623047"/>
       <use xlink:href="#DejaVuSans-33" x="95.410156"/>
      </g>
     </g>
    </g>
    <g id="ytick_5">
     <g id="line2d_12">
      <g>
       <use xlink:href="#mcbeec5d9fd" x="30.103125" y="30.906177" style="stroke: #000000; stroke-width: 0.8"/>
      </g>
     </g>
     <g id="text_12">
      <!-- 0.4 -->
      <g transform="translate(7.2 34.705396)scale(0.1 -0.1)">
       <defs>
        <path id="DejaVuSans-34" d="M 2419 4116 
L 825 1625 
L 2419 1625 
L 2419 4116 
z
M 2253 4666 
L 3047 4666 
L 3047 1625 
L 3713 1625 
L 3713 1100 
L 3047 1100 
L 3047 0 
L 2419 0 
L 2419 1100 
L 313 1100 
L 313 1709 
L 2253 4666 
z
" transform="scale(0.015625)"/>
       </defs>
       <use xlink:href="#DejaVuSans-30"/>
       <use xlink:href="#DejaVuSans-2e" x="63.623047"/>
       <use xlink:href="#DejaVuSans-34" x="95.410156"/>
      </g>
     </g>
    </g>
   </g>
   <g id="line2d_13">
    <path d="M 41.171165 142.479972 
L 41.911502 142.018722 
L 42.651839 140.852547 
L 43.392176 138.994621 
L 44.132513 136.46592 
L 44.87285 133.294979 
L 46.353525 125.17613 
L 47.834199 115.002322 
L 49.314873 103.228391 
L 52.276221 77.019725 
L 55.23757 51.110458 
L 56.718244 39.674343 
L 58.198918 29.908012 
L 59.679592 22.206401 
L 60.41993 19.22628 
L 61.160267 16.864327 
L 61.900604 15.139736 
L 62.640941 14.064214 
L 63.381278 13.641903 
L 64.121615 13.869408 
L 64.861952 14.735903 
L 65.602289 16.223337 
L 66.342626 18.306724 
L 67.082964 20.954512 
L 68.563638 27.787036 
L 70.044312 36.356054 
L 71.524986 46.227282 
L 75.226672 73.396632 
L 77.447683 88.92804 
L 78.928357 98.019982 
L 80.409032 105.679271 
L 81.889706 111.637974 
L 82.630043 113.922099 
L 83.37038 115.724788 
L 84.110717 117.040706 
L 84.851054 117.871013 
L 85.591391 118.223251 
L 86.331728 118.111162 
L 87.072066 117.554417 
L 87.812403 116.578274 
L 88.55274 115.213172 
L 89.293077 113.494251 
L 90.773751 109.155813 
L 92.254425 103.916874 
L 97.436785 84.210753 
L 98.917459 79.78056 
L 99.657796 77.973522 
L 100.398133 76.480558 
L 101.138471 75.327277 
L 101.878808 74.534185 
L 102.619145 74.116462 
L 103.359482 74.083806 
L 104.099819 74.440364 
L 104.840156 75.184728 
L 105.580493 76.310014 
L 106.32083 77.804013 
L 107.061167 79.64941 
L 108.541842 84.301409 
L 110.022516 90.037909 
L 112.243527 100.040605 
L 116.68555 120.897114 
L 118.166224 126.859264 
L 119.646898 131.835821 
L 121.127572 135.609826 
L 121.86791 136.996578 
L 122.608247 138.032806 
L 123.348584 138.711805 
L 124.088921 139.03179 
L 124.829258 138.995883 
L 125.569595 138.612028 
L 126.309932 137.892831 
L 127.050269 136.855348 
L 127.790606 135.520806 
L 129.271281 132.064246 
L 130.751955 127.762419 
L 132.972966 120.343841 
L 135.934315 110.258438 
L 137.414989 105.804426 
L 138.895663 102.090393 
L 139.636 100.576336 
L 140.376337 99.31864 
L 141.116674 98.333098 
L 141.857012 97.63126 
L 142.597349 97.220296 
L 143.337686 97.102925 
L 144.078023 97.277413 
L 144.81836 97.737624 
L 145.558697 98.473152 
L 146.299034 99.469496 
L 147.039371 100.70831 
L 148.520046 103.822554 
L 150.00072 107.604681 
L 152.962068 116.154403 
L 155.183079 122.349741 
L 156.663754 125.881678 
L 158.144428 128.672111 
L 158.884765 129.732956 
L 159.625102 130.547794 
L 160.365439 131.104125 
L 161.105776 131.39355 
L 161.846113 131.411902 
L 162.586451 131.159312 
L 163.326788 130.640218 
L 164.067125 129.863303 
L 164.807462 128.841371 
L 166.288136 126.133127 
L 167.76881 122.691911 
L 169.989822 116.65734 
L 172.95117 108.393286 
L 174.431844 104.796114 
L 175.912519 101.901038 
L 176.652856 100.785667 
L 177.393193 99.922313 
L 178.13353 99.329363 
L 178.873867 99.021169 
L 179.614204 99.007787 
L 180.354541 99.294766 
L 181.094878 99.883009 
L 181.835215 100.768694 
L 182.575553 101.943265 
L 183.31589 103.393493 
L 184.796564 107.045473 
L 186.277238 111.531834 
L 188.498249 119.259835 
L 191.459598 129.776069 
L 192.940272 134.360333 
L 194.420946 138.053385 
L 195.161283 139.472387 
L 195.90162 140.562543 
L 196.641958 141.295598 
L 197.382295 141.647548 
L 198.122632 141.599036 
L 198.862969 141.135697 
L 199.603306 140.248435 
L 200.343643 138.933637 
L 201.08398 137.193307 
L 201.824317 135.035133 
L 203.304992 129.524276 
L 204.785666 122.573892 
L 206.26634 114.439119 
L 208.487351 100.746217 
L 212.189037 77.315958 
L 213.669711 68.991054 
L 215.150385 61.885545 
L 216.631059 56.35456 
L 217.371397 54.272167 
L 218.111734 52.684487 
L 218.852071 51.613901 
L 219.592408 51.076673 
L 220.332745 51.082671 
L 221.073082 51.635175 
L 221.813419 52.730758 
L 222.553756 54.359262 
L 223.294093 56.503847 
L 224.034431 59.141138 
L 225.515105 65.769089 
L 226.995779 73.935974 
L 229.21679 88.202591 
L 233.658813 118.05348 
L 235.139487 126.538927 
L 236.620161 133.506556 
L 237.360499 136.297681 
L 238.100836 138.571307 
L 238.841173 140.292997 
L 239.58151 141.434754 
L 240.321847 141.975413 
L 241.062184 141.900934 
L 241.802521 141.204628 
L 242.542858 139.887277 
L 243.283195 137.957168 
L 244.023533 135.430042 
L 244.76387 132.328934 
L 246.244544 124.531884 
L 247.725218 114.884965 
L 249.205892 103.799703 
L 252.167241 79.304966 
L 255.128589 55.382122 
L 256.609263 45.005713 
L 258.089938 36.339747 
L 258.830275 32.776644 
L 259.570612 29.78387 
L 260.310949 27.396142 
L 261.051286 25.641183 
L 261.791623 24.539379 
L 262.53196 24.103535 
L 262.53196 24.103535 
" clip-path="url(#pc6e37c117f)" style="fill: none; stroke: #0010bd; stroke-linecap: square"/>
   </g>
   <g id="patch_3">
    <path d="M 30.103125 148.921875 
L 30.103125 7.2 
" style="fill: none; stroke: #000000; stroke-width: 0.8; stroke-linejoin: miter; stroke-linecap: square"/>
   </g>
   <g id="patch_4">
    <path d="M 273.6 148.921875 
L 273.6 7.2 
" style="fill: none; stroke: #000000; stroke-width: 0.8; stroke-linejoin: miter; stroke-linecap: square"/>
   </g>
   <g id="patch_5">
    <path d="M 30.103125 148.921875 
L 273.6 148.921875 
" style="fill: none; stroke: #000000; stroke-width: 0.8; stroke-linejoin: miter; stroke-linecap: square"/>
   </g>
   <g id="patch_6">
    <path d="M 30.103125 7.2 
L 273.6 7.2 
" style="fill: none; stroke: #000000; stroke-width: 0.8; stroke-linejoin: miter; stroke-linecap: square"/>
   </g>
  </g>
 </g>
 <defs>
  <clipPath id="pc6e37c117f">
   <rect x="30.103125" y="7.2" width="243.496875" height="141.721875"/>
  </clipPath>
 </defs>
</svg>
